{"glyphs":{"0":{"ha":853,"x_min":0,"x_max":0,"o":"m 426 -18 b 115 289 263 -18 115 100 l 115 683 b 426 990 115 872 263 990 b 738 683 589 990 738 872 l 738 289 b 426 -18 738 100 589 -18 m 426 97 b 617 293 538 97 617 178 l 617 678 b 426 875 617 794 536 875 b 236 678 317 875 236 794 l 236 293 b 426 97 236 178 315 97 "},"1":{"ha":658,"x_min":0,"x_max":0,"o":"m 360 0 l 360 858 l 185 858 l 185 972 l 481 972 l 481 0 "},"2":{"ha":832,"x_min":0,"x_max":0,"o":"m 267 114 l 725 114 l 725 0 l 117 0 l 117 117 l 496 528 b 576 708 546 582 576 642 b 404 875 576 793 515 875 b 238 708 303 875 238 799 l 238 656 l 117 656 l 117 708 b 407 990 117 847 217 990 b 703 708 594 990 703 849 b 592 463 703 596 646 518 "},"3":{"ha":838,"x_min":0,"x_max":0,"o":"m 488 583 b 729 288 625 556 729 444 b 422 -18 729 111 601 -18 b 115 272 257 -18 119 86 l 236 272 b 422 96 243 149 326 96 b 611 288 531 96 611 171 b 383 485 611 399 533 485 l 264 485 l 264 490 l 571 858 l 140 858 l 140 972 l 713 972 l 713 858 "},"4":{"ha":850,"x_min":0,"x_max":0,"o":"m 785 342 l 785 231 l 669 231 l 669 0 l 551 0 l 551 231 l 94 231 l 94 332 l 383 972 l 507 972 l 221 342 l 551 342 l 551 643 l 669 643 l 669 342 "},"5":{"ha":826,"x_min":0,"x_max":0,"o":"m 401 -18 b 96 272 224 -18 100 101 l 217 272 b 401 96 221 161 300 96 b 596 293 515 96 596 181 b 382 489 596 414 496 489 l 125 489 l 125 972 l 661 972 l 661 858 l 240 858 l 240 603 l 397 603 b 715 293 572 603 715 471 b 401 -18 715 121 594 -18 "},"6":{"ha":872,"x_min":0,"x_max":0,"o":"m 435 -18 b 108 308 250 -18 108 122 b 175 517 108 378 131 438 l 429 972 l 565 972 l 363 614 b 446 628 388 622 418 628 b 764 308 625 628 764 481 b 435 -18 764 124 615 -18 m 436 97 b 643 308 557 97 643 194 b 436 519 643 421 553 519 b 228 308 315 519 228 421 b 436 97 228 190 318 97 "},"7":{"ha":754,"x_min":0,"x_max":0,"o":"m 88 972 l 674 972 l 674 858 l 303 0 l 176 0 l 549 858 l 88 858 "},"8":{"ha":854,"x_min":0,"x_max":0,"o":"m 426 -17 b 113 272 246 -17 113 99 b 243 506 113 394 181 467 b 133 722 186 542 133 621 b 426 990 133 882 258 990 b 718 722 593 990 718 882 b 610 506 718 621 665 542 b 739 272 671 467 739 394 b 426 -17 739 99 606 -17 m 426 551 b 599 722 533 551 599 629 b 426 882 599 806 536 882 b 253 722 315 882 253 806 b 426 551 253 629 318 551 m 426 96 b 615 272 542 97 615 176 b 426 446 615 369 543 446 b 236 272 308 446 236 369 b 426 96 236 176 310 97 "},"9":{"ha":872,"x_min":0,"x_max":0,"o":"m 438 990 b 764 664 622 990 764 850 b 697 456 764 594 742 535 l 443 0 l 307 0 l 510 358 b 426 344 485 350 454 344 b 108 664 247 344 108 492 b 438 990 108 849 257 990 m 438 875 b 229 664 315 875 229 778 b 438 453 229 551 319 453 b 644 664 557 453 644 551 b 438 875 644 782 554 875 "},"\u0000":{"ha":431,"x_min":0,"x_max":0,"o":""},"\r":{"ha":431,"x_min":0,"x_max":0,"o":""}," ":{"ha":322,"x_min":0,"x_max":0,"o":""},"A":{"ha":754,"x_min":0,"x_max":0,"o":"m 715 0 l 585 0 l 542 168 l 203 168 l 158 0 l 39 0 l 299 972 l 456 972 m 233 282 l 514 282 l 376 826 "},"Á":{"ha":754,"x_min":0,"x_max":0,"o":"m 313 1069 l 379 1246 l 507 1246 l 397 1069 m 715 0 l 585 0 l 542 168 l 203 168 l 158 0 l 39 0 l 299 972 l 456 972 m 376 826 l 233 282 l 514 282 "},"Ă":{"ha":754,"x_min":0,"x_max":0,"o":"m 376 1072 b 208 1243 269 1072 208 1146 l 297 1243 b 376 1158 297 1193 326 1158 b 453 1243 426 1158 453 1193 l 543 1243 b 376 1072 543 1143 479 1072 m 456 972 l 715 0 l 585 0 l 542 168 l 203 168 l 158 0 l 39 0 l 299 972 m 514 282 l 376 826 l 233 282 "},"Ǎ":{"ha":754,"x_min":0,"x_max":0,"o":"m 435 1069 l 311 1069 l 196 1246 l 294 1246 l 374 1163 l 453 1246 l 550 1246 m 456 972 l 715 0 l 585 0 l 542 168 l 203 168 l 158 0 l 39 0 l 299 972 m 233 282 l 514 282 l 376 826 "},"Â":{"ha":754,"x_min":0,"x_max":0,"o":"m 375 1153 l 296 1069 l 197 1069 l 313 1246 l 436 1246 l 551 1069 l 454 1069 m 456 972 l 715 0 l 585 0 l 542 168 l 203 168 l 158 0 l 39 0 l 299 972 m 233 282 l 514 282 l 376 826 "},"Ä":{"ha":754,"x_min":0,"x_max":0,"o":"m 264 1089 b 190 1163 221 1089 190 1119 b 264 1233 190 1203 221 1233 b 336 1161 307 1233 336 1203 b 264 1089 336 1119 307 1089 m 489 1089 b 414 1163 444 1089 414 1119 b 489 1233 414 1203 444 1233 b 561 1161 529 1233 561 1203 b 489 1089 561 1119 529 1089 m 158 0 l 39 0 l 299 972 l 456 972 l 715 0 l 585 0 l 542 168 l 203 168 m 514 282 l 376 826 l 233 282 "},"À":{"ha":754,"x_min":0,"x_max":0,"o":"m 440 1069 l 356 1069 l 246 1246 l 374 1246 m 203 168 l 158 0 l 39 0 l 299 972 l 456 972 l 715 0 l 585 0 l 542 168 m 233 282 l 514 282 l 376 826 "},"Ā":{"ha":754,"x_min":0,"x_max":0,"o":"m 211 1114 l 211 1211 l 538 1211 l 538 1114 m 542 168 l 203 168 l 158 0 l 39 0 l 299 972 l 456 972 l 715 0 l 585 0 m 376 826 l 233 282 l 514 282 "},"Ą":{"ha":754,"x_min":0,"x_max":0,"o":"m 583 -161 b 642 -211 583 -190 607 -211 l 708 -211 l 708 -303 l 619 -303 b 478 -175 539 -303 478 -256 b 531 -64 478 -135 496 -101 l 590 0 l 585 0 l 542 168 l 203 168 l 158 0 l 39 0 l 299 972 l 456 972 l 715 0 l 608 -111 b 583 -161 594 -125 583 -140 m 233 282 l 514 282 l 376 826 "},"Å":{"ha":754,"x_min":0,"x_max":0,"o":"m 375 1028 b 242 1157 297 1028 242 1083 b 374 1285 242 1231 297 1285 b 508 1157 453 1285 508 1231 b 375 1028 508 1083 451 1028 m 375 1096 b 435 1157 411 1096 435 1122 b 374 1218 435 1192 411 1218 b 315 1157 339 1218 315 1192 b 375 1096 315 1122 339 1096 m 585 0 l 542 168 l 203 168 l 158 0 l 39 0 l 299 972 l 456 972 l 715 0 m 514 282 l 376 826 l 233 282 "},"Ã":{"ha":754,"x_min":0,"x_max":0,"o":"m 463 1094 b 388 1113 435 1094 413 1103 l 331 1136 b 297 1144 315 1142 306 1144 b 268 1115 282 1144 268 1135 l 268 1096 l 185 1096 l 185 1133 b 285 1239 185 1201 229 1239 b 358 1221 310 1239 335 1231 l 413 1199 b 450 1189 431 1192 439 1189 b 478 1218 465 1189 478 1199 l 478 1238 l 563 1238 l 563 1200 b 463 1094 563 1132 518 1094 m 715 0 l 585 0 l 542 168 l 203 168 l 158 0 l 39 0 l 299 972 l 456 972 m 233 282 l 514 282 l 376 826 "},"Æ":{"ha":1069,"x_min":0,"x_max":0,"o":"m 685 113 l 976 113 l 976 0 l 583 0 l 540 168 l 203 168 l 158 0 l 39 0 l 299 972 l 961 972 l 961 860 l 486 860 l 568 553 l 915 553 l 915 440 l 597 440 m 232 279 l 513 279 l 375 826 "},"B":{"ha":785,"x_min":0,"x_max":0,"o":"m 136 0 l 136 972 l 428 972 b 711 707 603 972 711 840 b 590 493 711 604 656 528 b 711 276 650 457 711 390 b 406 0 711 115 592 0 m 257 550 l 431 550 b 588 707 513 550 588 611 b 431 857 588 788 517 857 l 257 857 m 257 115 l 417 115 b 585 275 508 115 585 176 b 417 438 585 371 511 438 l 257 438 "},"C":{"ha":968,"x_min":0,"x_max":0,"o":"m 558 103 b 843 232 676 103 783 164 l 928 144 b 558 -17 842 49 713 -17 b 67 490 268 -17 67 201 b 558 990 67 761 268 990 b 925 833 715 990 843 922 l 840 744 b 558 871 778 815 674 871 b 196 490 358 871 196 717 b 558 103 196 260 357 103 "},"Ć":{"ha":968,"x_min":0,"x_max":0,"o":"m 496 1069 l 563 1246 l 690 1246 l 581 1069 m 558 103 b 843 232 676 103 783 164 l 928 144 b 558 -17 842 49 713 -17 b 67 490 268 -17 67 201 b 558 990 67 761 268 990 b 925 833 715 990 843 922 l 840 744 b 558 871 778 815 674 871 b 196 490 358 871 196 717 b 558 103 196 260 357 103 "},"Č":{"ha":968,"x_min":0,"x_max":0,"o":"m 618 1069 l 494 1069 l 379 1246 l 478 1246 l 557 1163 l 636 1246 l 733 1246 m 928 144 b 558 -17 842 49 713 -17 b 67 490 268 -17 67 201 b 558 990 67 761 268 990 b 925 833 715 990 843 922 l 840 744 b 558 871 778 815 674 871 b 196 490 358 871 196 717 b 558 103 196 260 357 103 b 843 232 676 103 783 164 "},"Ç":{"ha":968,"x_min":0,"x_max":0,"o":"m 928 144 b 578 -17 846 53 724 -11 l 569 -50 l 579 -50 b 708 -176 654 -50 708 -103 b 579 -303 708 -244 656 -303 l 469 -303 l 469 -228 l 565 -228 b 624 -176 600 -228 624 -206 b 567 -122 624 -144 600 -122 l 483 -122 l 504 -14 b 67 490 243 11 67 219 b 558 990 67 761 268 990 b 925 833 715 990 843 922 l 840 744 b 558 871 778 815 674 871 b 196 490 358 871 196 717 b 558 103 196 260 357 103 b 843 232 676 103 783 164 "},"Ĉ":{"ha":968,"x_min":0,"x_max":0,"o":"m 558 1153 l 479 1069 l 381 1069 l 496 1246 l 619 1246 l 735 1069 l 638 1069 m 928 144 b 558 -17 842 49 713 -17 b 67 490 268 -17 67 201 b 558 990 67 761 268 990 b 925 833 715 990 843 922 l 840 744 b 558 871 778 815 674 871 b 196 490 358 871 196 717 b 558 103 196 260 357 103 b 843 232 676 103 783 164 "},"Ċ":{"ha":968,"x_min":0,"x_max":0,"o":"m 558 1083 b 482 1163 514 1083 482 1119 b 558 1238 482 1204 514 1238 b 636 1163 606 1238 636 1204 b 558 1083 636 1119 607 1083 m 558 103 b 843 232 676 103 783 164 l 928 144 b 558 -17 842 49 713 -17 b 67 490 268 -17 67 201 b 558 990 67 761 268 990 b 925 833 715 990 843 922 l 840 744 b 558 871 778 815 674 871 b 196 490 358 871 196 717 b 558 103 196 260 357 103 "},"D":{"ha":840,"x_min":0,"x_max":0,"o":"m 136 0 l 136 972 l 243 972 b 774 488 581 972 774 750 b 243 0 774 207 581 0 m 261 115 b 643 488 479 115 643 250 b 261 853 643 717 479 853 "},"Ð":{"ha":931,"x_min":0,"x_max":0,"o":"m 333 972 b 864 488 671 972 864 750 b 333 0 864 207 671 0 l 226 0 l 226 442 l 136 442 l 136 546 l 226 546 l 226 972 m 351 115 b 733 488 569 115 733 250 b 351 853 733 717 569 853 l 351 546 l 526 546 l 526 442 l 351 442 "},"Ď":{"ha":840,"x_min":0,"x_max":0,"o":"m 467 1069 l 343 1069 l 228 1246 l 326 1246 l 406 1163 l 485 1246 l 582 1246 m 243 972 b 774 488 581 972 774 750 b 243 0 774 207 581 0 l 136 0 l 136 972 m 261 115 b 643 488 479 115 643 250 b 261 853 643 717 479 853 "},"Đ":{"ha":931,"x_min":0,"x_max":0,"o":"m 333 972 b 864 488 671 972 864 750 b 333 0 864 207 671 0 l 226 0 l 226 442 l 136 442 l 136 546 l 226 546 l 226 972 m 351 115 b 733 488 569 115 733 250 b 351 853 733 717 569 853 l 351 546 l 526 546 l 526 442 l 351 442 "},"E":{"ha":739,"x_min":0,"x_max":0,"o":"m 257 857 l 257 553 l 585 553 l 585 438 l 257 438 l 257 117 l 644 117 l 644 0 l 136 0 l 136 972 l 631 972 l 631 857 "},"É":{"ha":739,"x_min":0,"x_max":0,"o":"m 331 1069 l 397 1246 l 525 1246 l 415 1069 m 644 0 l 136 0 l 136 972 l 631 972 l 631 857 l 257 857 l 257 553 l 585 553 l 585 438 l 257 438 l 257 117 l 644 117 "},"Ĕ":{"ha":739,"x_min":0,"x_max":0,"o":"m 394 1072 b 226 1243 288 1072 226 1146 l 315 1243 b 394 1158 315 1193 344 1158 b 471 1243 444 1158 471 1193 l 561 1243 b 394 1072 561 1143 497 1072 m 644 117 l 644 0 l 136 0 l 136 972 l 631 972 l 631 857 l 257 857 l 257 553 l 585 553 l 585 438 l 257 438 l 257 117 "},"Ě":{"ha":739,"x_min":0,"x_max":0,"o":"m 453 1069 l 329 1069 l 214 1246 l 313 1246 l 392 1163 l 471 1246 l 568 1246 m 257 117 l 644 117 l 644 0 l 136 0 l 136 972 l 631 972 l 631 857 l 257 857 l 257 553 l 585 553 l 585 438 l 257 438 "},"Ê":{"ha":739,"x_min":0,"x_max":0,"o":"m 393 1153 l 314 1069 l 215 1069 l 331 1246 l 454 1246 l 569 1069 l 472 1069 m 257 117 l 644 117 l 644 0 l 136 0 l 136 972 l 631 972 l 631 857 l 257 857 l 257 553 l 585 553 l 585 438 l 257 438 "},"Ë":{"ha":739,"x_min":0,"x_max":0,"o":"m 282 1089 b 208 1163 239 1089 208 1119 b 282 1233 208 1203 239 1233 b 354 1161 325 1233 354 1203 b 282 1089 354 1119 325 1089 m 507 1089 b 432 1163 463 1089 432 1119 b 507 1233 432 1203 463 1233 b 579 1161 547 1233 579 1203 b 507 1089 579 1119 547 1089 m 585 438 l 257 438 l 257 117 l 644 117 l 644 0 l 136 0 l 136 972 l 631 972 l 631 857 l 257 857 l 257 553 l 585 553 "},"Ė":{"ha":739,"x_min":0,"x_max":0,"o":"m 393 1083 b 317 1163 349 1083 317 1119 b 393 1238 317 1204 349 1238 b 471 1163 440 1238 471 1204 b 393 1083 471 1119 442 1083 m 585 553 l 585 438 l 257 438 l 257 117 l 644 117 l 644 0 l 136 0 l 136 972 l 631 972 l 631 857 l 257 857 l 257 553 "},"È":{"ha":739,"x_min":0,"x_max":0,"o":"m 458 1069 l 374 1069 l 264 1246 l 392 1246 m 257 553 l 585 553 l 585 438 l 257 438 l 257 117 l 644 117 l 644 0 l 136 0 l 136 972 l 631 972 l 631 857 l 257 857 "},"Ē":{"ha":739,"x_min":0,"x_max":0,"o":"m 229 1114 l 229 1211 l 556 1211 l 556 1114 m 257 857 l 257 553 l 585 553 l 585 438 l 257 438 l 257 117 l 644 117 l 644 0 l 136 0 l 136 972 l 631 972 l 631 857 "},"Ę":{"ha":739,"x_min":0,"x_max":0,"o":"m 644 0 l 538 -111 b 513 -161 524 -125 513 -140 b 571 -211 513 -190 536 -211 l 638 -211 l 638 -303 l 549 -303 b 407 -175 468 -303 407 -256 b 460 -64 407 -135 425 -101 l 519 0 l 136 0 l 136 972 l 631 972 l 631 857 l 257 857 l 257 553 l 585 553 l 585 438 l 257 438 l 257 117 l 644 117 "},"F":{"ha":725,"x_min":0,"x_max":0,"o":"m 136 0 l 136 972 l 631 972 l 631 857 l 257 857 l 257 535 l 613 535 l 613 419 l 257 419 l 257 0 "},"G":{"ha":1125,"x_min":0,"x_max":0,"o":"m 529 422 l 529 536 l 1104 536 l 1104 422 l 1032 422 b 558 -17 1011 171 840 -17 b 67 490 268 -17 67 201 b 558 990 67 761 268 990 b 924 831 715 990 842 922 l 840 746 b 558 872 776 819 674 872 b 196 490 357 872 196 722 b 558 101 196 256 356 101 b 906 422 756 101 886 225 "},"Ğ":{"ha":1125,"x_min":0,"x_max":0,"o":"m 550 1072 b 382 1243 443 1072 382 1146 l 471 1243 b 550 1158 471 1193 500 1158 b 626 1243 600 1158 626 1193 l 717 1243 b 550 1072 717 1143 653 1072 m 529 536 l 1104 536 l 1104 422 l 1032 422 b 558 -17 1011 171 840 -17 b 67 490 268 -17 67 201 b 558 990 67 761 268 990 b 924 831 715 990 842 922 l 840 746 b 558 872 776 819 674 872 b 196 490 357 872 196 722 b 558 101 196 256 356 101 b 906 422 756 101 886 225 l 529 422 "},"Ǧ":{"ha":1125,"x_min":0,"x_max":0,"o":"m 608 1069 l 485 1069 l 369 1246 l 468 1246 l 547 1163 l 626 1246 l 724 1246 m 529 536 l 1104 536 l 1104 422 l 1032 422 b 558 -17 1011 171 840 -17 b 67 490 268 -17 67 201 b 558 990 67 761 268 990 b 924 831 715 990 842 922 l 840 746 b 558 872 776 819 674 872 b 196 490 357 872 196 722 b 558 101 196 256 356 101 b 906 422 756 101 886 225 l 529 422 "},"Ĝ":{"ha":1125,"x_min":0,"x_max":0,"o":"m 549 1153 l 469 1069 l 371 1069 l 486 1246 l 610 1246 l 725 1069 l 628 1069 m 529 536 l 1104 536 l 1104 422 l 1032 422 b 558 -17 1011 171 840 -17 b 67 490 268 -17 67 201 b 558 990 67 761 268 990 b 924 831 715 990 842 922 l 840 746 b 558 872 776 819 674 872 b 196 490 357 872 196 722 b 558 101 196 256 356 101 b 906 422 756 101 886 225 l 529 422 "},"Ģ":{"ha":1125,"x_min":0,"x_max":0,"o":"m 529 536 l 1104 536 l 1104 422 l 1032 422 b 558 -17 1011 171 840 -17 b 67 490 268 -17 67 201 b 558 990 67 761 268 990 b 924 831 715 990 842 922 l 840 746 b 558 872 776 819 674 872 b 196 490 357 872 196 722 b 558 101 196 256 356 101 b 906 422 756 101 886 225 l 529 422 m 560 -76 b 638 -158 597 -76 638 -103 l 638 -226 b 538 -322 638 -292 594 -322 l 485 -322 l 485 -261 l 533 -261 b 571 -226 556 -261 571 -249 l 571 -211 l 560 -211 b 489 -144 515 -211 489 -179 b 560 -76 489 -104 522 -76 "},"Ġ":{"ha":1125,"x_min":0,"x_max":0,"o":"m 549 1083 b 472 1163 504 1083 472 1119 b 549 1238 472 1204 504 1238 b 626 1163 596 1238 626 1204 b 549 1083 626 1119 597 1083 m 529 422 l 529 536 l 1104 536 l 1104 422 l 1032 422 b 558 -17 1011 171 840 -17 b 67 490 268 -17 67 201 b 558 990 67 761 268 990 b 924 831 715 990 842 922 l 840 746 b 558 872 776 819 674 872 b 196 490 357 872 196 722 b 558 101 196 256 356 101 b 906 422 756 101 886 225 "},"H":{"ha":894,"x_min":0,"x_max":0,"o":"m 261 0 l 136 0 l 136 972 l 261 972 l 261 556 l 633 556 l 633 972 l 758 972 l 758 0 l 633 0 l 633 438 l 261 438 "},"Ħ":{"ha":894,"x_min":0,"x_max":0,"o":"m 846 824 l 846 726 l 758 726 l 758 0 l 633 0 l 633 438 l 261 438 l 261 0 l 136 0 l 136 726 l 49 726 l 49 824 l 136 824 l 136 972 l 261 972 l 261 824 l 633 824 l 633 972 l 758 972 l 758 824 m 633 556 l 633 726 l 261 726 l 261 556 "},"Ĥ":{"ha":894,"x_min":0,"x_max":0,"o":"m 450 1153 l 371 1069 l 272 1069 l 388 1246 l 511 1246 l 626 1069 l 529 1069 m 633 972 l 758 972 l 758 0 l 633 0 l 633 438 l 261 438 l 261 0 l 136 0 l 136 972 l 261 972 l 261 556 l 633 556 "},"I":{"ha":594,"x_min":0,"x_max":0,"o":"m 124 0 l 124 108 l 236 108 l 236 864 l 131 864 l 131 972 l 465 972 l 465 864 l 358 864 l 358 108 l 472 108 l 472 0 "},"Ĳ":{"ha":1136,"x_min":0,"x_max":0,"o":"m 358 864 l 358 108 l 472 108 l 472 0 l 124 0 l 124 108 l 236 108 l 236 864 l 131 864 l 131 972 l 465 972 l 465 864 m 696 972 l 1028 972 l 1028 278 b 751 0 1028 124 942 0 l 619 0 l 619 115 l 750 115 b 903 278 850 115 903 176 l 903 858 l 696 858 "},"Í":{"ha":594,"x_min":0,"x_max":0,"o":"m 239 1069 l 306 1246 l 433 1246 l 324 1069 m 358 864 l 358 108 l 472 108 l 472 0 l 124 0 l 124 108 l 236 108 l 236 864 l 131 864 l 131 972 l 465 972 l 465 864 "},"Ĭ":{"ha":594,"x_min":0,"x_max":0,"o":"m 303 1072 b 135 1243 196 1072 135 1146 l 224 1243 b 303 1158 224 1193 253 1158 b 379 1243 353 1158 379 1193 l 469 1243 b 303 1072 469 1143 406 1072 m 465 864 l 358 864 l 358 108 l 472 108 l 472 0 l 124 0 l 124 108 l 236 108 l 236 864 l 131 864 l 131 972 l 465 972 "},"Ǐ":{"ha":594,"x_min":0,"x_max":0,"o":"m 361 1069 l 238 1069 l 122 1246 l 221 1246 l 300 1163 l 379 1246 l 476 1246 m 358 864 l 358 108 l 472 108 l 472 0 l 124 0 l 124 108 l 236 108 l 236 864 l 131 864 l 131 972 l 465 972 l 465 864 "},"Î":{"ha":594,"x_min":0,"x_max":0,"o":"m 301 1153 l 222 1069 l 124 1069 l 239 1246 l 363 1246 l 478 1069 l 381 1069 m 358 864 l 358 108 l 472 108 l 472 0 l 124 0 l 124 108 l 236 108 l 236 864 l 131 864 l 131 972 l 465 972 l 465 864 "},"Ï":{"ha":594,"x_min":0,"x_max":0,"o":"m 190 1089 b 117 1163 147 1089 117 1119 b 190 1233 117 1203 147 1233 b 263 1161 233 1233 263 1203 b 190 1089 263 1119 233 1089 m 415 1089 b 340 1163 371 1089 340 1119 b 415 1233 340 1203 371 1233 b 488 1161 456 1233 488 1203 b 415 1089 488 1119 456 1089 m 131 864 l 131 972 l 465 972 l 465 864 l 358 864 l 358 108 l 472 108 l 472 0 l 124 0 l 124 108 l 236 108 l 236 864 "},"İ":{"ha":594,"x_min":0,"x_max":0,"o":"m 301 1083 b 225 1163 257 1083 225 1119 b 301 1238 225 1204 257 1238 b 379 1163 349 1238 379 1204 b 301 1083 379 1119 350 1083 m 236 864 l 131 864 l 131 972 l 465 972 l 465 864 l 358 864 l 358 108 l 472 108 l 472 0 l 124 0 l 124 108 l 236 108 "},"Ì":{"ha":594,"x_min":0,"x_max":0,"o":"m 367 1069 l 282 1069 l 172 1246 l 300 1246 m 236 108 l 236 864 l 131 864 l 131 972 l 465 972 l 465 864 l 358 864 l 358 108 l 472 108 l 472 0 l 124 0 l 124 108 "},"Ī":{"ha":594,"x_min":0,"x_max":0,"o":"m 138 1114 l 138 1211 l 464 1211 l 464 1114 m 124 108 l 236 108 l 236 864 l 131 864 l 131 972 l 465 972 l 465 864 l 358 864 l 358 108 l 472 108 l 472 0 l 124 0 "},"Į":{"ha":594,"x_min":0,"x_max":0,"o":"m 472 0 l 365 -111 b 340 -161 351 -125 340 -140 b 397 -211 340 -190 363 -211 l 464 -211 l 464 -303 l 375 -303 b 235 -175 296 -303 235 -256 b 288 -64 235 -135 253 -101 l 347 0 l 124 0 l 124 108 l 236 108 l 236 864 l 131 864 l 131 972 l 465 972 l 465 864 l 358 864 l 358 108 l 472 108 "},"Ĩ":{"ha":594,"x_min":0,"x_max":0,"o":"m 389 1094 b 314 1113 361 1094 339 1103 l 257 1136 b 224 1144 242 1142 232 1144 b 194 1115 208 1144 194 1135 l 194 1096 l 111 1096 l 111 1133 b 211 1239 111 1201 156 1239 b 285 1221 236 1239 261 1231 l 339 1199 b 376 1189 357 1192 365 1189 b 404 1218 392 1189 404 1199 l 404 1238 l 489 1238 l 489 1200 b 389 1094 489 1132 444 1094 m 124 0 l 124 108 l 236 108 l 236 864 l 131 864 l 131 972 l 465 972 l 465 864 l 358 864 l 358 108 l 472 108 l 472 0 "},"J":{"ha":569,"x_min":0,"x_max":0,"o":"m 53 0 l 53 115 l 183 115 b 336 278 283 115 336 176 l 336 858 l 129 858 l 129 972 l 461 972 l 461 278 b 185 0 461 124 375 0 "},"Ĵ":{"ha":569,"x_min":0,"x_max":0,"o":"m 303 1153 l 224 1069 l 125 1069 l 240 1246 l 364 1246 l 479 1069 l 382 1069 m 129 858 l 129 972 l 461 972 l 461 278 b 185 0 461 124 375 0 l 53 0 l 53 115 l 183 115 b 336 278 283 115 336 176 l 336 858 "},"K":{"ha":735,"x_min":0,"x_max":0,"o":"m 710 0 l 557 0 l 257 475 l 257 0 l 136 0 l 136 972 l 257 972 l 257 540 l 501 972 l 638 972 l 378 514 "},"Ķ":{"ha":735,"x_min":0,"x_max":0,"o":"m 378 514 l 710 0 l 557 0 l 257 475 l 257 0 l 136 0 l 136 972 l 257 972 l 257 540 l 501 972 l 638 972 m 400 -76 b 478 -158 438 -76 478 -103 l 478 -226 b 378 -322 478 -292 435 -322 l 325 -322 l 325 -261 l 374 -261 b 411 -226 396 -261 411 -249 l 411 -211 l 400 -211 b 329 -144 356 -211 329 -179 b 400 -76 329 -104 363 -76 "},"L":{"ha":715,"x_min":0,"x_max":0,"o":"m 635 0 l 136 0 l 136 972 l 261 972 l 261 118 l 635 118 "},"Ĺ":{"ha":715,"x_min":0,"x_max":0,"o":"m 150 1069 l 217 1246 l 344 1246 l 235 1069 m 635 0 l 136 0 l 136 972 l 261 972 l 261 118 l 635 118 "},"Ľ":{"ha":715,"x_min":0,"x_max":0,"o":"m 635 0 l 136 0 l 136 972 l 261 972 l 261 118 l 635 118 m 411 728 l 411 972 l 539 972 l 493 728 "},"Ļ":{"ha":715,"x_min":0,"x_max":0,"o":"m 261 118 l 635 118 l 635 0 l 136 0 l 136 972 l 261 972 m 386 -76 b 464 -158 424 -76 464 -103 l 464 -226 b 364 -322 464 -292 421 -322 l 311 -322 l 311 -261 l 360 -261 b 397 -226 382 -261 397 -249 l 397 -211 l 386 -211 b 315 -144 342 -211 315 -179 b 386 -76 315 -104 349 -76 "},"Ŀ":{"ha":676,"x_min":0,"x_max":0,"o":"m 635 0 l 136 0 l 136 972 l 261 972 l 261 118 l 635 118 m 483 425 b 390 517 433 425 390 467 b 483 607 390 568 433 607 b 575 517 535 607 575 568 b 483 425 575 467 535 425 "},"Ł":{"ha":858,"x_min":0,"x_max":0,"o":"m 404 118 l 778 118 l 778 0 l 279 0 l 279 385 l 136 321 l 136 438 l 279 501 l 279 972 l 404 972 l 404 558 l 663 674 l 663 557 l 404 442 "},"M":{"ha":1056,"x_min":0,"x_max":0,"o":"m 136 0 l 136 972 l 288 972 l 528 171 l 767 972 l 919 972 l 919 0 l 804 0 l 804 714 l 590 0 l 465 0 l 251 710 l 251 0 "},"N":{"ha":919,"x_min":0,"x_max":0,"o":"m 665 0 l 257 719 l 257 0 l 136 0 l 136 972 l 257 972 l 664 254 l 664 972 l 783 972 l 783 0 "},"Ń":{"ha":919,"x_min":0,"x_max":0,"o":"m 401 1069 l 468 1246 l 596 1246 l 486 1069 m 257 0 l 136 0 l 136 972 l 257 972 l 664 254 l 664 972 l 783 972 l 783 0 l 665 0 l 257 719 "},"Ň":{"ha":919,"x_min":0,"x_max":0,"o":"m 524 1069 l 400 1069 l 285 1246 l 383 1246 l 463 1163 l 542 1246 l 639 1246 m 664 972 l 783 972 l 783 0 l 665 0 l 257 719 l 257 0 l 136 0 l 136 972 l 257 972 l 664 254 "},"Ņ":{"ha":919,"x_min":0,"x_max":0,"o":"m 664 972 l 783 972 l 783 0 l 665 0 l 257 719 l 257 0 l 136 0 l 136 972 l 257 972 l 664 254 m 469 -76 b 547 -158 507 -76 547 -103 l 547 -226 b 447 -322 547 -292 504 -322 l 394 -322 l 394 -261 l 443 -261 b 481 -226 465 -261 481 -249 l 481 -211 l 469 -211 b 399 -144 425 -211 399 -179 b 469 -76 399 -104 432 -76 "},"Ŋ":{"ha":919,"x_min":0,"x_max":0,"o":"m 664 972 l 783 972 l 783 -18 b 507 -286 783 -169 694 -286 l 446 -286 l 446 -172 l 506 -172 b 664 -14 604 -172 664 -112 l 664 3 l 257 719 l 257 0 l 136 0 l 136 972 l 257 972 l 664 254 "},"Ñ":{"ha":919,"x_min":0,"x_max":0,"o":"m 551 1094 b 476 1113 524 1094 501 1103 l 419 1136 b 386 1144 404 1142 394 1144 b 357 1115 371 1144 357 1135 l 357 1096 l 274 1096 l 274 1133 b 374 1239 274 1201 318 1239 b 447 1221 399 1239 424 1231 l 501 1199 b 539 1189 519 1192 528 1189 b 567 1218 554 1189 567 1199 l 567 1238 l 651 1238 l 651 1200 b 551 1094 651 1132 607 1094 m 665 0 l 257 719 l 257 0 l 136 0 l 136 972 l 257 972 l 664 254 l 664 972 l 783 972 l 783 0 "},"O":{"ha":1119,"x_min":0,"x_max":0,"o":"m 560 -17 b 67 490 263 -17 67 210 b 560 990 67 753 263 990 b 1053 490 857 990 1053 753 b 560 -17 1053 210 857 -17 m 560 103 b 922 490 767 103 922 263 b 560 871 922 713 765 871 b 197 490 354 871 197 713 b 560 103 197 263 353 103 "},"Ó":{"ha":1119,"x_min":0,"x_max":0,"o":"m 497 1069 l 564 1246 l 692 1246 l 582 1069 m 560 -17 b 67 490 263 -17 67 210 b 560 990 67 753 263 990 b 1053 490 857 990 1053 753 b 560 -17 1053 210 857 -17 m 560 103 b 922 490 767 103 922 263 b 560 871 922 713 765 871 b 197 490 354 871 197 713 b 560 103 197 263 353 103 "},"Ŏ":{"ha":1119,"x_min":0,"x_max":0,"o":"m 561 1072 b 393 1243 454 1072 393 1146 l 482 1243 b 561 1158 482 1193 511 1158 b 638 1243 611 1158 638 1193 l 728 1243 b 561 1072 728 1143 664 1072 m 560 -17 b 67 490 263 -17 67 210 b 560 990 67 753 263 990 b 1053 490 857 990 1053 753 b 560 -17 1053 210 857 -17 m 560 103 b 922 490 767 103 922 263 b 560 871 922 713 765 871 b 197 490 354 871 197 713 b 560 103 197 263 353 103 "},"Ǒ":{"ha":1119,"x_min":0,"x_max":0,"o":"m 619 1069 l 496 1069 l 381 1246 l 479 1246 l 558 1163 l 638 1246 l 735 1246 m 560 990 b 1053 490 857 990 1053 753 b 560 -17 1053 210 857 -17 b 67 490 263 -17 67 210 b 560 990 67 753 263 990 m 560 103 b 922 490 767 103 922 263 b 560 871 922 713 765 871 b 197 490 354 871 197 713 b 560 103 197 263 353 103 "},"Ô":{"ha":1119,"x_min":0,"x_max":0,"o":"m 560 1153 l 481 1069 l 382 1069 l 497 1246 l 621 1246 l 736 1069 l 639 1069 m 560 990 b 1053 490 857 990 1053 753 b 560 -17 1053 210 857 -17 b 67 490 263 -17 67 210 b 560 990 67 753 263 990 m 560 103 b 922 490 767 103 922 263 b 560 871 922 713 765 871 b 197 490 354 871 197 713 b 560 103 197 263 353 103 "},"Ö":{"ha":1119,"x_min":0,"x_max":0,"o":"m 449 1089 b 375 1163 406 1089 375 1119 b 449 1233 375 1203 406 1233 b 521 1161 492 1233 521 1203 b 449 1089 521 1119 492 1089 m 674 1089 b 599 1163 629 1089 599 1119 b 674 1233 599 1203 629 1233 b 746 1161 714 1233 746 1203 b 674 1089 746 1119 714 1089 m 560 -17 b 67 490 263 -17 67 210 b 560 990 67 753 263 990 b 1053 490 857 990 1053 753 b 560 -17 1053 210 857 -17 m 560 103 b 922 490 767 103 922 263 b 560 871 922 713 765 871 b 197 490 354 871 197 713 b 560 103 197 263 353 103 "},"Ò":{"ha":1119,"x_min":0,"x_max":0,"o":"m 625 1069 l 540 1069 l 431 1246 l 558 1246 m 560 -17 b 67 490 263 -17 67 210 b 560 990 67 753 263 990 b 1053 490 857 990 1053 753 b 560 -17 1053 210 857 -17 m 560 103 b 922 490 767 103 922 263 b 560 871 922 713 765 871 b 197 490 354 871 197 713 b 560 103 197 263 353 103 "},"Ő":{"ha":1119,"x_min":0,"x_max":0,"o":"m 411 1069 l 471 1246 l 593 1246 l 493 1069 m 608 1069 l 669 1246 l 793 1246 l 692 1069 m 560 -17 b 67 490 263 -17 67 210 b 560 990 67 753 263 990 b 1053 490 857 990 1053 753 b 560 -17 1053 210 857 -17 m 560 103 b 922 490 767 103 922 263 b 560 871 922 713 765 871 b 197 490 354 871 197 713 b 560 103 197 263 353 103 "},"Ō":{"ha":1119,"x_min":0,"x_max":0,"o":"m 396 1114 l 396 1211 l 722 1211 l 722 1114 m 560 -17 b 67 490 263 -17 67 210 b 560 990 67 753 263 990 b 1053 490 857 990 1053 753 b 560 -17 1053 210 857 -17 m 560 103 b 922 490 767 103 922 263 b 560 871 922 713 765 871 b 197 490 354 871 197 713 b 560 103 197 263 353 103 "},"Ø":{"ha":1097,"x_min":0,"x_max":0,"o":"m 893 863 b 1053 490 994 769 1053 633 b 560 -17 1053 210 857 -17 b 290 58 457 -17 365 11 l 222 -33 l 140 26 l 211 122 b 67 490 119 214 67 344 b 560 990 67 753 263 990 b 811 924 656 990 740 965 l 874 1007 l 957 947 m 197 490 b 289 225 197 383 231 292 l 738 825 b 560 871 686 854 625 871 b 197 490 354 871 197 713 m 560 103 b 922 490 767 103 922 263 b 819 763 922 601 883 696 l 365 158 b 560 103 421 122 488 103 "},"Õ":{"ha":1119,"x_min":0,"x_max":0,"o":"m 646 1094 b 571 1113 618 1094 596 1103 l 514 1136 b 481 1144 499 1142 489 1144 b 451 1115 465 1144 451 1135 l 451 1096 l 368 1096 l 368 1133 b 468 1239 368 1201 413 1239 b 542 1221 493 1239 518 1231 l 596 1199 b 633 1189 614 1192 622 1189 b 661 1218 649 1189 661 1199 l 661 1238 l 746 1238 l 746 1200 b 646 1094 746 1132 701 1094 m 560 -17 b 67 490 263 -17 67 210 b 560 990 67 753 263 990 b 1053 490 857 990 1053 753 b 560 -17 1053 210 857 -17 m 560 103 b 922 490 767 103 922 263 b 560 871 922 713 765 871 b 197 490 354 871 197 713 b 560 103 197 263 353 103 "},"Œ":{"ha":1447,"x_min":0,"x_max":0,"o":"m 1353 117 l 1353 0 l 694 0 b 560 -17 653 -11 607 -17 b 67 490 263 -17 67 210 b 560 990 67 753 263 990 b 697 972 608 990 654 983 l 1339 972 l 1339 857 l 900 857 b 1049 553 982 778 1035 669 l 1293 553 l 1293 438 l 1050 438 b 903 117 1039 311 986 199 m 197 490 b 560 103 197 263 353 103 b 922 490 767 103 922 263 b 560 871 922 713 765 871 b 197 490 354 871 197 713 "},"P":{"ha":765,"x_min":0,"x_max":0,"o":"m 136 0 l 136 704 b 431 990 136 863 258 990 b 724 703 593 990 724 863 b 431 413 724 515 585 414 b 257 476 367 413 304 436 l 257 0 m 431 529 b 599 703 528 529 599 603 b 431 875 599 793 535 874 b 258 703 324 874 258 793 b 431 529 258 604 326 529 "},"Þ":{"ha":760,"x_min":0,"x_max":0,"o":"m 403 781 b 700 507 564 781 700 672 b 403 231 700 322 549 231 l 257 231 l 257 0 l 136 0 l 136 972 l 257 972 l 257 781 m 403 347 b 575 507 503 347 575 414 b 403 665 575 600 503 665 l 257 665 l 257 347 "},"Q":{"ha":1119,"x_min":0,"x_max":0,"o":"m 1053 490 b 915 129 1053 349 1003 221 l 1024 0 l 879 0 l 829 58 b 560 -17 754 11 663 -17 b 67 490 263 -17 67 210 b 560 990 67 753 263 990 b 1053 490 857 990 1053 753 m 560 101 b 749 151 631 101 694 119 l 585 342 l 678 415 l 835 226 b 922 490 890 294 922 385 b 560 872 922 714 768 872 b 197 490 353 872 197 714 b 560 101 197 261 350 101 "},"R":{"ha":801,"x_min":0,"x_max":0,"o":"m 776 0 l 631 0 l 257 476 l 257 0 l 136 0 l 136 704 b 431 990 136 863 258 990 b 724 703 593 990 724 863 b 444 414 724 521 593 419 m 431 875 b 258 703 324 874 258 793 b 431 529 258 604 326 529 b 599 703 528 529 599 603 b 431 875 599 793 535 874 "},"Ŕ":{"ha":801,"x_min":0,"x_max":0,"o":"m 367 1069 l 433 1246 l 561 1246 l 451 1069 m 776 0 l 631 0 l 257 476 l 257 0 l 136 0 l 136 704 b 431 990 136 863 258 990 b 724 703 593 990 724 863 b 444 414 724 521 593 419 m 431 875 b 258 703 324 874 258 793 b 431 529 258 604 326 529 b 599 703 528 529 599 603 b 431 875 599 793 535 874 "},"Ř":{"ha":801,"x_min":0,"x_max":0,"o":"m 490 1069 l 367 1069 l 251 1246 l 350 1246 l 429 1163 l 508 1246 l 606 1246 m 776 0 l 631 0 l 257 476 l 257 0 l 136 0 l 136 704 b 431 990 136 863 258 990 b 724 703 593 990 724 863 b 444 414 724 521 593 419 m 258 703 b 431 529 258 604 326 529 b 599 703 528 529 599 603 b 431 875 599 793 535 874 b 258 703 324 874 258 793 "},"Ŗ":{"ha":801,"x_min":0,"x_max":0,"o":"m 776 0 l 631 0 l 257 476 l 257 0 l 136 0 l 136 704 b 431 990 136 863 258 990 b 724 703 593 990 724 863 b 444 414 724 521 593 419 m 258 703 b 431 529 258 604 326 529 b 599 703 528 529 599 603 b 431 875 599 793 535 874 b 258 703 324 874 258 793 m 435 -76 b 513 -158 472 -76 513 -103 l 513 -226 b 413 -322 513 -292 469 -322 l 360 -322 l 360 -261 l 408 -261 b 446 -226 431 -261 446 -249 l 446 -211 l 435 -211 b 364 -144 390 -211 364 -179 b 435 -76 364 -104 397 -76 "},"S":{"ha":689,"x_min":0,"x_max":0,"o":"m 119 0 l 119 119 l 346 119 b 515 268 442 119 515 178 b 394 419 515 332 478 379 l 271 478 b 92 731 169 526 92 599 b 360 972 92 872 204 972 l 571 972 l 571 857 l 358 857 b 215 731 276 857 215 807 b 329 583 215 657 254 621 l 456 522 b 640 268 549 478 640 406 b 346 0 640 117 519 0 "},"Ś":{"ha":689,"x_min":0,"x_max":0,"o":"m 322 1069 l 389 1246 l 517 1246 l 407 1069 m 119 0 l 119 119 l 346 119 b 515 268 442 119 515 178 b 394 419 515 332 478 379 l 271 478 b 92 731 169 526 92 599 b 360 972 92 872 204 972 l 571 972 l 571 857 l 358 857 b 215 731 276 857 215 807 b 329 583 215 657 254 621 l 456 522 b 640 268 549 478 640 406 b 346 0 640 117 519 0 "},"Š":{"ha":689,"x_min":0,"x_max":0,"o":"m 444 1069 l 321 1069 l 206 1246 l 304 1246 l 383 1163 l 463 1246 l 560 1246 m 456 522 b 640 268 549 478 640 406 b 346 0 640 117 519 0 l 119 0 l 119 119 l 346 119 b 515 268 442 119 515 178 b 394 419 515 332 478 379 l 271 478 b 92 731 169 526 92 599 b 360 972 92 872 204 972 l 571 972 l 571 857 l 358 857 b 215 731 276 857 215 807 b 329 583 215 657 254 621 "},"Ş":{"ha":689,"x_min":0,"x_max":0,"o":"m 640 268 b 381 1 640 126 535 15 l 367 -50 l 376 -50 b 506 -176 451 -50 506 -103 b 376 -303 506 -244 453 -303 l 267 -303 l 267 -228 l 363 -228 b 421 -176 397 -228 421 -206 b 364 -122 421 -144 397 -122 l 281 -122 l 303 0 l 119 0 l 119 119 l 346 119 b 515 268 442 119 515 178 b 394 419 515 332 478 379 l 271 478 b 92 731 169 526 92 599 b 360 972 92 872 204 972 l 571 972 l 571 857 l 358 857 b 215 731 276 857 215 807 b 329 583 215 657 254 621 l 456 522 b 640 268 549 478 640 406 "},"Ŝ":{"ha":689,"x_min":0,"x_max":0,"o":"m 385 1153 l 306 1069 l 207 1069 l 322 1246 l 446 1246 l 561 1069 l 464 1069 m 456 522 b 640 268 549 478 640 406 b 346 0 640 117 519 0 l 119 0 l 119 119 l 346 119 b 515 268 442 119 515 178 b 394 419 515 332 478 379 l 271 478 b 92 731 169 526 92 599 b 360 972 92 872 204 972 l 571 972 l 571 857 l 358 857 b 215 731 276 857 215 807 b 329 583 215 657 254 621 "},"Ș":{"ha":689,"x_min":0,"x_max":0,"o":"m 456 522 b 640 268 549 478 640 406 b 346 0 640 117 519 0 l 119 0 l 119 119 l 346 119 b 515 268 442 119 515 178 b 394 419 515 332 478 379 l 271 478 b 92 731 169 526 92 599 b 360 972 92 872 204 972 l 571 972 l 571 857 l 358 857 b 215 731 276 857 215 807 b 329 583 215 657 254 621 m 343 -76 b 421 -158 381 -76 421 -103 l 421 -226 b 321 -322 421 -292 378 -322 l 268 -322 l 268 -261 l 317 -261 b 354 -226 339 -261 354 -249 l 354 -211 l 343 -211 b 272 -144 299 -211 272 -179 b 343 -76 272 -104 306 -76 "},"ẞ":{"ha":1014,"x_min":0,"x_max":0,"o":"m 775 522 b 964 268 868 468 964 400 b 671 0 964 117 843 0 l 444 0 l 444 119 l 671 119 b 840 268 767 119 840 178 b 719 419 840 332 800 372 l 613 482 b 458 701 532 528 458 593 b 543 858 458 776 499 826 l 431 858 b 261 681 324 858 261 793 l 261 0 l 136 0 l 136 685 b 429 972 136 840 228 972 l 675 972 l 675 833 b 579 706 617 814 579 767 b 672 582 579 644 618 615 "},"T":{"ha":735,"x_min":0,"x_max":0,"o":"m 431 0 l 306 0 l 306 857 l 74 857 l 74 972 l 661 972 l 661 857 l 431 857 "},"Ŧ":{"ha":735,"x_min":0,"x_max":0,"o":"m 661 857 l 431 857 l 431 553 l 606 553 l 606 444 l 431 444 l 431 0 l 306 0 l 306 444 l 129 444 l 129 553 l 306 553 l 306 857 l 74 857 l 74 972 l 661 972 "},"Ť":{"ha":735,"x_min":0,"x_max":0,"o":"m 435 1069 l 311 1069 l 196 1246 l 294 1246 l 374 1163 l 453 1246 l 550 1246 m 74 972 l 661 972 l 661 857 l 431 857 l 431 0 l 306 0 l 306 857 l 74 857 "},"Ţ":{"ha":735,"x_min":0,"x_max":0,"o":"m 431 0 l 397 0 l 385 -50 l 394 -50 b 524 -176 469 -50 524 -103 b 394 -303 524 -244 471 -303 l 285 -303 l 285 -228 l 381 -228 b 439 -176 415 -228 439 -206 b 382 -122 439 -144 415 -122 l 299 -122 l 321 0 l 306 0 l 306 857 l 74 857 l 74 972 l 661 972 l 661 857 l 431 857 "},"Ț":{"ha":735,"x_min":0,"x_max":0,"o":"m 74 972 l 661 972 l 661 857 l 431 857 l 431 0 l 306 0 l 306 857 l 74 857 m 361 -76 b 439 -158 399 -76 439 -103 l 439 -226 b 339 -322 439 -292 396 -322 l 286 -322 l 286 -261 l 335 -261 b 372 -226 357 -261 372 -249 l 372 -211 l 361 -211 b 290 -144 317 -211 290 -179 b 361 -76 290 -104 324 -76 "},"U":{"ha":868,"x_min":0,"x_max":0,"o":"m 432 -18 b 122 297 288 -18 122 68 l 122 972 l 247 972 l 247 297 b 433 100 247 183 308 100 b 621 297 561 100 621 183 l 621 972 l 746 972 l 746 297 b 432 -18 746 68 572 -18 "},"Ú":{"ha":868,"x_min":0,"x_max":0,"o":"m 369 1069 l 436 1246 l 564 1246 l 454 1069 m 432 -18 b 122 297 288 -18 122 68 l 122 972 l 247 972 l 247 297 b 433 100 247 183 308 100 b 621 297 561 100 621 183 l 621 972 l 746 972 l 746 297 b 432 -18 746 68 572 -18 "},"Ŭ":{"ha":868,"x_min":0,"x_max":0,"o":"m 435 1072 b 267 1243 328 1072 267 1146 l 356 1243 b 435 1158 356 1193 385 1158 b 511 1243 485 1158 511 1193 l 601 1243 b 435 1072 601 1143 538 1072 m 432 -18 b 122 297 288 -18 122 68 l 122 972 l 247 972 l 247 297 b 433 100 247 183 308 100 b 621 297 561 100 621 183 l 621 972 l 746 972 l 746 297 b 432 -18 746 68 572 -18 "},"Û":{"ha":868,"x_min":0,"x_max":0,"o":"m 433 1153 l 354 1069 l 256 1069 l 371 1246 l 494 1246 l 610 1069 l 513 1069 m 621 972 l 746 972 l 746 297 b 432 -18 746 68 572 -18 b 122 297 288 -18 122 68 l 122 972 l 247 972 l 247 297 b 433 100 247 183 308 100 b 621 297 561 100 621 183 "},"Ü":{"ha":868,"x_min":0,"x_max":0,"o":"m 321 1089 b 247 1163 278 1089 247 1119 b 321 1233 247 1203 278 1233 b 393 1161 364 1233 393 1203 b 321 1089 393 1119 364 1089 m 546 1089 b 471 1163 501 1089 471 1119 b 546 1233 471 1203 501 1233 b 618 1161 586 1233 618 1203 b 546 1089 618 1119 586 1089 m 432 -18 b 122 297 288 -18 122 68 l 122 972 l 247 972 l 247 297 b 433 100 247 183 308 100 b 621 297 561 100 621 183 l 621 972 l 746 972 l 746 297 b 432 -18 746 68 572 -18 "},"Ù":{"ha":868,"x_min":0,"x_max":0,"o":"m 499 1069 l 414 1069 l 304 1246 l 432 1246 m 432 -18 b 122 297 288 -18 122 68 l 122 972 l 247 972 l 247 297 b 433 100 247 183 308 100 b 621 297 561 100 621 183 l 621 972 l 746 972 l 746 297 b 432 -18 746 68 572 -18 "},"Ű":{"ha":868,"x_min":0,"x_max":0,"o":"m 285 1069 l 344 1246 l 467 1246 l 367 1069 m 482 1069 l 543 1246 l 667 1246 l 565 1069 m 432 -18 b 122 297 288 -18 122 68 l 122 972 l 247 972 l 247 297 b 433 100 247 183 308 100 b 621 297 561 100 621 183 l 621 972 l 746 972 l 746 297 b 432 -18 746 68 572 -18 "},"Ū":{"ha":868,"x_min":0,"x_max":0,"o":"m 269 1114 l 269 1211 l 596 1211 l 596 1114 m 432 -18 b 122 297 288 -18 122 68 l 122 972 l 247 972 l 247 297 b 433 100 247 183 308 100 b 621 297 561 100 621 183 l 621 972 l 746 972 l 746 297 b 432 -18 746 68 572 -18 "},"Ų":{"ha":868,"x_min":0,"x_max":0,"o":"m 621 972 l 746 972 l 746 297 b 531 -4 746 121 643 29 l 428 -111 b 403 -161 414 -125 403 -140 b 461 -211 403 -190 426 -211 l 526 -211 l 526 -303 l 438 -303 b 297 -175 358 -303 297 -256 b 350 -64 297 -135 315 -101 l 394 -17 b 122 297 261 -3 122 88 l 122 972 l 247 972 l 247 297 b 433 100 247 183 308 100 b 621 297 561 100 621 183 "},"Ů":{"ha":868,"x_min":0,"x_max":0,"o":"m 432 1028 b 299 1157 354 1028 299 1083 b 431 1285 299 1231 354 1285 b 565 1157 510 1285 565 1231 b 432 1028 565 1083 508 1028 m 432 1096 b 492 1157 468 1096 492 1122 b 431 1218 492 1192 468 1218 b 372 1157 396 1218 372 1192 b 432 1096 372 1122 396 1096 m 432 -18 b 122 297 288 -18 122 68 l 122 972 l 247 972 l 247 297 b 433 100 247 183 308 100 b 621 297 561 100 621 183 l 621 972 l 746 972 l 746 297 b 432 -18 746 68 572 -18 "},"Ũ":{"ha":868,"x_min":0,"x_max":0,"o":"m 519 1094 b 444 1113 492 1094 469 1103 l 388 1136 b 354 1144 372 1142 363 1144 b 325 1115 339 1144 325 1135 l 325 1096 l 242 1096 l 242 1133 b 342 1239 242 1201 286 1239 b 415 1221 367 1239 392 1231 l 469 1199 b 507 1189 488 1192 496 1189 b 535 1218 522 1189 535 1199 l 535 1238 l 619 1238 l 619 1200 b 519 1094 619 1132 575 1094 m 432 -18 b 122 297 288 -18 122 68 l 122 972 l 247 972 l 247 297 b 433 100 247 183 308 100 b 621 297 561 100 621 183 l 621 972 l 746 972 l 746 297 b 432 -18 746 68 572 -18 "},"V":{"ha":750,"x_min":0,"x_max":0,"o":"m 588 972 l 711 972 l 451 0 l 299 0 l 39 972 l 163 972 l 375 144 "},"W":{"ha":988,"x_min":0,"x_max":0,"o":"m 749 0 l 653 0 l 494 686 l 335 0 l 239 0 l 39 972 l 158 972 l 290 281 l 449 972 l 539 972 l 697 281 l 829 972 l 949 972 "},"Ẃ":{"ha":988,"x_min":0,"x_max":0,"o":"m 429 1069 l 496 1246 l 624 1246 l 514 1069 m 335 0 l 239 0 l 39 972 l 158 972 l 290 281 l 449 972 l 539 972 l 697 281 l 829 972 l 949 972 l 749 0 l 653 0 l 494 686 "},"Ŵ":{"ha":988,"x_min":0,"x_max":0,"o":"m 493 1153 l 414 1069 l 315 1069 l 431 1246 l 554 1246 l 669 1069 l 572 1069 m 829 972 l 949 972 l 749 0 l 653 0 l 494 686 l 335 0 l 239 0 l 39 972 l 158 972 l 290 281 l 449 972 l 539 972 l 697 281 "},"Ẅ":{"ha":988,"x_min":0,"x_max":0,"o":"m 381 1089 b 307 1163 338 1089 307 1119 b 381 1233 307 1203 338 1233 b 453 1161 424 1233 453 1203 b 381 1089 453 1119 424 1089 m 606 1089 b 531 1163 561 1089 531 1119 b 606 1233 531 1203 561 1233 b 678 1161 646 1233 678 1203 b 606 1089 678 1119 646 1089 m 653 0 l 494 686 l 335 0 l 239 0 l 39 972 l 158 972 l 290 281 l 449 972 l 539 972 l 697 281 l 829 972 l 949 972 l 749 0 "},"Ẁ":{"ha":988,"x_min":0,"x_max":0,"o":"m 558 1069 l 474 1069 l 364 1246 l 492 1246 m 749 0 l 653 0 l 494 686 l 335 0 l 239 0 l 39 972 l 158 972 l 290 281 l 449 972 l 539 972 l 697 281 l 829 972 l 949 972 "},"X":{"ha":700,"x_min":0,"x_max":0,"o":"m 25 0 l 269 503 l 51 972 l 182 972 l 350 596 l 518 972 l 649 972 l 431 503 l 675 0 l 546 0 l 350 410 l 154 0 "},"Y":{"ha":838,"x_min":0,"x_max":0,"o":"m 342 357 l 39 972 l 183 972 l 410 488 l 660 972 l 799 972 l 294 0 l 157 0 "},"Ý":{"ha":838,"x_min":0,"x_max":0,"o":"m 353 1069 l 419 1246 l 547 1246 l 438 1069 m 410 488 l 660 972 l 799 972 l 294 0 l 157 0 l 342 357 l 39 972 l 183 972 "},"Ŷ":{"ha":838,"x_min":0,"x_max":0,"o":"m 417 1153 l 338 1069 l 239 1069 l 354 1246 l 478 1246 l 593 1069 l 496 1069 m 660 972 l 799 972 l 294 0 l 157 0 l 342 357 l 39 972 l 183 972 l 410 488 "},"Ÿ":{"ha":838,"x_min":0,"x_max":0,"o":"m 304 1089 b 231 1163 261 1089 231 1119 b 304 1233 231 1203 261 1233 b 376 1161 347 1233 376 1203 b 304 1089 376 1119 347 1089 m 529 1089 b 454 1163 485 1089 454 1119 b 529 1233 454 1203 485 1233 b 601 1161 569 1233 601 1203 b 529 1089 601 1119 569 1089 m 39 972 l 183 972 l 410 488 l 660 972 l 799 972 l 294 0 l 157 0 l 342 357 "},"Ỳ":{"ha":838,"x_min":0,"x_max":0,"o":"m 482 1069 l 397 1069 l 288 1246 l 415 1246 m 342 357 l 39 972 l 183 972 l 410 488 l 660 972 l 799 972 l 294 0 l 157 0 "},"Z":{"ha":804,"x_min":0,"x_max":0,"o":"m 97 972 l 721 972 l 721 849 l 224 118 l 724 118 l 724 0 l 81 0 l 81 125 l 578 854 l 97 854 "},"Ź":{"ha":804,"x_min":0,"x_max":0,"o":"m 343 1069 l 410 1246 l 538 1246 l 428 1069 m 721 849 l 224 118 l 724 118 l 724 0 l 81 0 l 81 125 l 578 854 l 97 854 l 97 972 l 721 972 "},"Ž":{"ha":804,"x_min":0,"x_max":0,"o":"m 467 1069 l 343 1069 l 228 1246 l 326 1246 l 406 1163 l 485 1246 l 582 1246 m 224 118 l 724 118 l 724 0 l 81 0 l 81 125 l 578 854 l 97 854 l 97 972 l 721 972 l 721 849 "},"Ż":{"ha":804,"x_min":0,"x_max":0,"o":"m 407 1083 b 331 1163 363 1083 331 1119 b 407 1238 331 1204 363 1238 b 485 1163 454 1238 485 1204 b 407 1083 485 1119 456 1083 m 97 972 l 721 972 l 721 849 l 224 118 l 724 118 l 724 0 l 81 0 l 81 125 l 578 854 l 97 854 "},"a":{"ha":689,"x_min":0,"x_max":0,"o":"m 542 643 l 611 0 l 494 0 l 481 125 b 276 -15 450 43 372 -15 b 56 203 150 -15 56 83 b 276 421 56 324 150 421 b 460 324 356 421 422 382 l 436 538 l 113 538 l 113 643 m 283 96 b 396 207 349 96 396 146 b 283 318 396 268 349 318 b 169 207 217 318 169 268 b 283 96 169 146 217 96 "},"á":{"ha":689,"x_min":0,"x_max":0,"o":"m 474 956 l 353 765 l 268 765 l 346 956 m 611 0 l 494 0 l 481 126 b 276 -15 450 44 372 -15 b 56 203 150 -15 56 83 b 276 421 56 324 150 421 b 460 324 356 421 421 382 l 436 538 l 113 538 l 113 643 l 542 643 m 283 96 b 396 207 349 96 396 146 b 283 318 396 268 349 318 b 169 207 217 318 169 268 b 283 96 169 146 217 96 "},"ă":{"ha":689,"x_min":0,"x_max":0,"o":"m 333 763 b 165 940 226 763 165 838 l 254 940 b 333 849 254 885 283 849 b 410 940 383 849 410 885 l 500 940 b 333 763 500 836 436 763 m 611 0 l 494 0 l 481 126 b 276 -15 450 44 372 -15 b 56 203 150 -15 56 83 b 276 421 56 324 150 421 b 460 324 356 421 421 382 l 436 538 l 113 538 l 113 643 l 542 643 m 283 96 b 396 207 349 96 396 146 b 283 318 396 268 349 318 b 169 207 217 318 169 268 b 283 96 169 146 217 96 "},"ǎ":{"ha":689,"x_min":0,"x_max":0,"o":"m 397 765 l 274 765 l 144 950 l 243 950 l 336 856 l 429 950 l 526 950 m 611 0 l 494 0 l 481 126 b 276 -15 450 44 372 -15 b 56 203 150 -15 56 83 b 276 421 56 324 150 421 b 460 324 356 421 421 382 l 436 538 l 113 538 l 113 643 l 542 643 m 283 96 b 396 207 349 96 396 146 b 283 318 396 268 349 318 b 169 207 217 318 169 268 b 283 96 169 146 217 96 "},"â":{"ha":689,"x_min":0,"x_max":0,"o":"m 339 860 l 246 765 l 147 765 l 276 950 l 400 950 l 529 765 l 432 765 m 611 0 l 494 0 l 481 126 b 276 -15 450 44 372 -15 b 56 203 150 -15 56 83 b 276 421 56 324 150 421 b 460 324 356 421 421 382 l 436 538 l 113 538 l 113 643 l 542 643 m 283 96 b 396 207 349 96 396 146 b 283 318 396 268 349 318 b 169 207 217 318 169 268 b 283 96 169 146 217 96 "},"ä":{"ha":689,"x_min":0,"x_max":0,"o":"m 215 788 b 142 861 172 788 142 818 b 215 933 142 901 172 933 b 288 860 258 933 288 901 b 215 788 288 818 258 788 m 458 788 b 385 861 414 788 385 818 b 458 933 385 901 414 933 b 531 860 499 933 531 901 b 458 788 531 818 499 788 m 611 0 l 494 0 l 481 126 b 276 -15 450 44 372 -15 b 56 203 150 -15 56 83 b 276 421 56 324 150 421 b 460 324 356 421 421 382 l 436 538 l 113 538 l 113 643 l 542 643 m 283 96 b 396 207 349 96 396 146 b 283 318 396 268 349 318 b 169 207 217 318 169 268 b 283 96 169 146 217 96 "},"à":{"ha":689,"x_min":0,"x_max":0,"o":"m 392 765 l 307 765 l 186 956 l 314 956 m 611 0 l 494 0 l 481 126 b 276 -15 450 44 372 -15 b 56 203 150 -15 56 83 b 276 421 56 324 150 421 b 460 324 356 421 421 382 l 436 538 l 113 538 l 113 643 l 542 643 m 283 96 b 396 207 349 96 396 146 b 283 318 396 268 349 318 b 169 207 217 318 169 268 b 283 96 169 146 217 96 "},"ā":{"ha":689,"x_min":0,"x_max":0,"o":"m 175 811 l 175 910 l 501 910 l 501 811 m 542 643 l 611 0 l 494 0 l 481 125 b 276 -15 450 43 372 -15 b 56 203 150 -15 56 83 b 276 421 56 324 150 421 b 460 324 356 421 422 382 l 436 538 l 113 538 l 113 643 m 283 96 b 396 207 349 96 396 146 b 283 318 396 268 349 318 b 169 207 217 318 169 268 b 283 96 169 146 217 96 "},"ą":{"ha":689,"x_min":0,"x_max":0,"o":"m 610 0 l 503 -111 b 478 -161 489 -125 478 -140 b 536 -211 478 -190 501 -211 l 603 -211 l 603 -303 l 514 -303 b 372 -175 433 -303 372 -256 b 425 -64 372 -135 390 -101 l 493 8 l 481 125 b 276 -15 450 43 372 -15 b 56 203 150 -15 56 83 b 276 421 56 324 150 421 b 460 324 356 421 422 382 l 436 538 l 113 538 l 113 643 l 542 643 l 611 0 m 283 96 b 396 207 349 96 396 146 b 283 318 396 268 349 318 b 169 207 217 318 169 268 b 283 96 169 146 217 96 "},"å":{"ha":689,"x_min":0,"x_max":0,"o":"m 335 722 b 201 851 257 722 201 778 b 333 979 201 925 257 979 b 468 851 413 979 468 925 b 335 722 468 778 411 722 m 335 789 b 396 851 371 789 396 815 b 333 914 396 888 371 914 b 274 851 299 914 274 888 b 335 789 274 815 299 789 m 542 643 l 611 0 l 494 0 l 481 125 b 276 -15 450 43 372 -15 b 56 203 150 -15 56 83 b 276 421 56 324 150 421 b 460 324 356 421 422 382 l 436 538 l 113 538 l 113 643 m 283 96 b 396 207 349 96 396 146 b 283 318 396 268 349 318 b 169 207 217 318 169 268 b 283 96 169 146 217 96 "},"ã":{"ha":689,"x_min":0,"x_max":0,"o":"m 417 789 b 342 807 389 789 367 797 l 285 829 b 251 839 269 835 260 839 b 222 808 236 839 222 828 l 222 789 l 139 789 l 139 828 b 239 932 139 894 183 932 b 313 914 264 932 289 924 l 367 892 b 404 882 385 885 393 882 b 432 913 419 882 432 893 l 432 932 l 517 932 l 517 893 b 417 789 517 826 472 789 m 542 643 l 611 0 l 494 0 l 481 125 b 276 -15 450 43 372 -15 b 56 203 150 -15 56 83 b 276 421 56 324 150 421 b 460 324 356 421 422 382 l 436 538 l 113 538 l 113 643 m 283 96 b 396 207 349 96 396 146 b 283 318 396 268 349 318 b 169 207 217 318 169 268 b 283 96 169 146 217 96 "},"æ":{"ha":1183,"x_min":0,"x_max":0,"o":"m 1117 332 b 1114 278 1117 314 1115 288 l 582 278 b 786 96 597 174 675 96 b 982 190 878 96 950 143 l 1075 124 b 786 -17 1013 36 904 -17 b 607 35 718 -17 657 1 l 611 0 l 494 0 l 481 126 b 276 -15 450 44 372 -15 b 56 203 150 -15 56 83 b 276 421 56 324 150 421 b 460 324 356 421 421 382 l 436 538 l 113 538 l 113 643 l 542 643 l 550 561 b 786 660 607 622 689 660 b 1117 332 972 660 1117 525 m 988 386 b 786 550 975 479 890 550 b 585 386 681 550 603 476 m 283 96 b 396 207 349 96 396 146 b 283 318 396 268 349 318 b 169 207 217 318 169 268 b 283 96 169 146 217 96 "},"b":{"ha":800,"x_min":0,"x_max":0,"o":"m 390 -17 b 219 32 328 -17 269 1 l 219 0 l 101 0 l 101 972 l 219 972 l 219 611 b 390 660 269 643 328 660 b 735 322 583 660 735 517 b 390 -17 735 128 583 -17 m 390 97 b 610 322 506 97 610 183 b 390 547 610 460 506 547 b 219 475 315 547 260 517 l 219 169 b 390 97 260 126 315 97 "},"c":{"ha":725,"x_min":0,"x_max":0,"o":"m 411 -17 b 67 322 211 -17 67 136 b 413 660 67 508 211 660 b 664 563 513 660 604 619 l 586 474 b 411 544 550 510 486 544 b 194 322 289 544 194 451 b 411 99 194 192 290 99 b 588 171 486 99 550 132 l 665 83 b 411 -17 606 24 513 -17 "},"ć":{"ha":725,"x_min":0,"x_max":0,"o":"m 333 765 l 411 956 l 539 956 l 418 765 m 411 -17 b 67 322 211 -17 67 136 b 413 660 67 508 211 660 b 664 563 513 660 604 619 l 586 474 b 411 544 550 510 486 544 b 194 322 289 544 194 451 b 411 99 194 192 290 99 b 588 171 486 99 550 132 l 665 83 b 411 -17 606 24 513 -17 "},"č":{"ha":725,"x_min":0,"x_max":0,"o":"m 463 765 l 339 765 l 210 950 l 308 950 l 401 856 l 494 950 l 592 950 m 665 83 b 411 -17 606 24 513 -17 b 67 322 211 -17 67 136 b 413 660 67 508 211 660 b 664 563 513 660 604 619 l 586 474 b 411 544 550 510 486 544 b 194 322 289 544 194 451 b 411 99 194 192 290 99 b 588 171 486 99 550 132 "},"ç":{"ha":725,"x_min":0,"x_max":0,"o":"m 439 -50 b 568 -176 514 -50 568 -103 b 439 -303 568 -244 515 -303 l 329 -303 l 329 -228 l 425 -228 b 483 -176 460 -228 483 -206 b 426 -122 483 -144 460 -122 l 343 -122 l 364 -14 b 67 322 189 8 67 151 b 413 660 67 508 211 660 b 664 563 513 660 604 619 l 586 474 b 411 544 550 510 486 544 b 194 322 289 544 194 451 b 411 99 194 192 290 99 b 588 171 486 99 550 132 l 665 83 b 438 -15 611 29 529 -10 l 429 -50 "},"ĉ":{"ha":725,"x_min":0,"x_max":0,"o":"m 404 860 l 311 765 l 213 765 l 342 950 l 465 950 l 594 765 l 497 765 m 665 83 b 411 -17 606 24 513 -17 b 67 322 211 -17 67 136 b 413 660 67 508 211 660 b 664 563 513 660 604 619 l 586 474 b 411 544 550 510 486 544 b 194 322 289 544 194 451 b 411 99 194 192 290 99 b 588 171 486 99 550 132 "},"ċ":{"ha":725,"x_min":0,"x_max":0,"o":"m 400 779 b 324 858 356 779 324 815 b 400 933 324 900 356 933 b 478 858 447 933 478 900 b 400 779 478 815 447 779 m 411 -17 b 67 322 211 -17 67 136 b 413 660 67 508 211 660 b 664 563 513 660 604 619 l 586 474 b 411 544 550 510 486 544 b 194 322 289 544 194 451 b 411 99 194 192 290 99 b 588 171 486 99 550 132 l 665 83 b 411 -17 606 24 513 -17 "},"d":{"ha":800,"x_min":0,"x_max":0,"o":"m 582 972 l 700 972 l 700 0 l 582 0 l 582 32 b 411 -17 532 1 472 -17 b 67 322 218 -17 67 128 b 410 660 67 517 218 660 b 582 611 472 660 532 643 m 411 97 b 582 169 485 97 542 126 l 582 475 b 411 547 542 517 485 547 b 192 322 294 547 192 460 b 411 97 192 183 294 97 "},"ð":{"ha":833,"x_min":0,"x_max":0,"o":"m 508 875 b 756 336 644 753 756 575 b 411 -17 756 129 607 -17 b 67 321 219 -17 67 129 b 404 660 67 519 219 660 b 572 621 465 660 526 647 b 414 814 533 689 479 754 l 236 699 l 183 783 l 332 879 b 146 978 274 919 211 953 l 190 1063 b 426 940 261 1039 344 999 l 604 1056 l 657 971 m 411 96 b 631 321 528 96 631 181 b 411 547 631 461 528 547 b 192 321 293 547 192 461 b 411 96 192 181 294 96 "},"ď":{"ha":924,"x_min":0,"x_max":0,"o":"m 582 972 l 700 972 l 700 0 l 582 0 l 582 32 b 411 -17 532 1 472 -17 b 67 322 218 -17 67 128 b 410 660 67 517 218 660 b 582 611 472 660 532 643 m 796 728 l 796 972 l 924 972 l 878 728 m 411 97 b 582 169 485 97 542 126 l 582 475 b 411 547 542 517 485 547 b 192 322 294 547 192 460 b 411 97 192 183 294 97 "},"đ":{"ha":822,"x_min":0,"x_max":0,"o":"m 789 864 l 789 774 l 700 774 l 700 0 l 582 0 l 582 32 b 410 -17 535 6 475 -17 b 67 322 210 -17 67 125 b 408 660 67 517 215 660 b 582 611 475 660 538 638 l 582 774 l 396 774 l 396 864 l 582 864 l 582 972 l 700 972 l 700 864 m 582 472 b 410 549 547 515 489 549 b 192 322 292 549 192 461 b 410 94 192 179 286 94 b 582 176 489 94 551 132 "},"e":{"ha":797,"x_min":0,"x_max":0,"o":"m 732 332 b 729 278 732 314 731 288 l 196 278 b 401 96 213 174 290 96 b 596 190 492 96 564 143 l 689 124 b 401 -17 626 36 518 -17 b 67 322 214 -17 67 125 b 401 660 67 514 208 660 b 732 332 588 660 732 525 m 601 386 b 400 550 589 479 504 550 b 199 386 294 550 218 476 "},"é":{"ha":797,"x_min":0,"x_max":0,"o":"m 335 765 l 413 956 l 540 956 l 419 765 m 732 332 b 729 278 732 314 731 288 l 196 278 b 401 96 213 174 290 96 b 596 190 492 96 564 143 l 689 124 b 401 -17 626 36 518 -17 b 67 322 214 -17 67 125 b 401 660 67 514 208 660 b 732 332 588 660 732 525 m 601 386 b 400 550 589 479 504 550 b 199 386 294 550 218 476 "},"ĕ":{"ha":797,"x_min":0,"x_max":0,"o":"m 400 763 b 232 940 293 763 232 838 l 321 940 b 400 849 321 885 350 849 b 476 940 450 849 476 885 l 567 940 b 400 763 567 836 503 763 m 732 332 b 729 278 732 314 731 288 l 196 278 b 401 96 213 174 290 96 b 596 190 492 96 564 143 l 689 124 b 401 -17 626 36 518 -17 b 67 322 214 -17 67 125 b 401 660 67 514 208 660 b 732 332 588 660 732 525 m 601 386 b 400 550 589 479 504 550 b 199 386 294 550 218 476 "},"ě":{"ha":797,"x_min":0,"x_max":0,"o":"m 464 765 l 340 765 l 211 950 l 310 950 l 403 856 l 496 950 l 593 950 m 732 332 b 729 278 732 314 731 288 l 196 278 b 401 96 213 174 290 96 b 596 190 492 96 564 143 l 689 124 b 401 -17 626 36 518 -17 b 67 322 214 -17 67 125 b 401 660 67 514 208 660 b 732 332 588 660 732 525 m 601 386 b 400 550 589 479 504 550 b 199 386 294 550 218 476 "},"ê":{"ha":797,"x_min":0,"x_max":0,"o":"m 406 860 l 313 765 l 214 765 l 343 950 l 467 950 l 596 765 l 499 765 m 732 332 b 729 278 732 314 731 288 l 196 278 b 401 96 213 174 290 96 b 596 190 492 96 564 143 l 689 124 b 401 -17 626 36 518 -17 b 67 322 214 -17 67 125 b 401 660 67 514 208 660 b 732 332 588 660 732 525 m 601 386 b 400 550 589 479 504 550 b 199 386 294 550 218 476 "},"ë":{"ha":797,"x_min":0,"x_max":0,"o":"m 282 788 b 208 861 239 788 208 818 b 282 933 208 901 239 933 b 354 860 325 933 354 901 b 282 788 354 818 325 788 m 525 788 b 451 861 481 788 451 818 b 525 933 451 901 481 933 b 597 860 565 933 597 901 b 525 788 597 818 565 788 m 732 332 b 729 278 732 314 731 288 l 196 278 b 401 96 213 174 290 96 b 596 190 492 96 564 143 l 689 124 b 401 -17 626 36 518 -17 b 67 322 214 -17 67 125 b 401 660 67 514 208 660 b 732 332 588 660 732 525 m 601 386 b 400 550 589 479 504 550 b 199 386 294 550 218 476 "},"ė":{"ha":797,"x_min":0,"x_max":0,"o":"m 401 779 b 325 858 357 779 325 815 b 401 933 325 900 357 933 b 479 858 449 933 479 900 b 401 779 479 815 449 779 m 732 332 b 729 278 732 314 731 288 l 196 278 b 401 96 213 174 290 96 b 596 190 492 96 564 143 l 689 124 b 401 -17 626 36 518 -17 b 67 322 214 -17 67 125 b 401 660 67 514 208 660 b 732 332 588 660 732 525 m 601 386 b 400 550 589 479 504 550 b 199 386 294 550 218 476 "},"è":{"ha":797,"x_min":0,"x_max":0,"o":"m 458 765 l 374 765 l 253 956 l 381 956 m 732 332 b 729 278 732 314 731 288 l 196 278 b 401 96 213 174 290 96 b 596 190 492 96 564 143 l 689 124 b 401 -17 626 36 518 -17 b 67 322 214 -17 67 125 b 401 660 67 514 208 660 b 732 332 588 660 732 525 m 601 386 b 400 550 589 479 504 550 b 199 386 294 550 218 476 "},"ē":{"ha":797,"x_min":0,"x_max":0,"o":"m 242 811 l 242 910 l 568 910 l 568 811 m 732 332 b 729 278 732 314 731 288 l 196 278 b 401 96 213 174 290 96 b 596 190 492 96 564 143 l 689 124 b 401 -17 626 36 518 -17 b 67 322 214 -17 67 125 b 401 660 67 514 208 660 b 732 332 588 660 732 525 m 601 386 b 400 550 589 479 504 550 b 199 386 294 550 218 476 "},"ę":{"ha":797,"x_min":0,"x_max":0,"o":"m 732 332 b 729 278 732 314 731 288 l 196 278 b 401 96 213 174 290 96 b 596 190 492 96 564 143 l 689 124 b 504 -3 646 63 579 18 l 401 -111 b 375 -161 386 -125 375 -140 b 433 -211 375 -190 399 -211 l 500 -211 l 500 -303 l 411 -303 b 269 -175 332 -303 269 -256 b 324 -64 269 -135 288 -101 l 369 -15 b 67 322 197 0 67 136 b 401 660 67 514 208 660 b 732 332 588 660 732 525 m 601 386 b 400 550 589 479 504 550 b 199 386 294 550 218 476 "},"f":{"ha":425,"x_min":0,"x_max":0,"o":"m 133 0 l 133 536 l 39 536 l 39 643 l 133 643 l 133 972 l 354 972 l 354 865 l 251 865 l 251 643 l 354 643 l 354 536 l 251 536 l 251 0 "},"g":{"ha":717,"x_min":0,"x_max":0,"o":"m 675 643 l 675 536 l 563 536 b 601 394 588 496 601 449 b 436 153 601 278 535 189 l 658 22 b 342 -300 657 -157 536 -300 b 28 0 151 -300 29 -172 l 144 0 b 342 -187 144 -96 210 -187 b 535 -33 461 -187 524 -114 l 185 172 b 182 174 183 172 183 174 l 178 176 b 58 394 106 221 58 299 b 331 660 58 553 179 660 b 429 643 365 660 399 654 m 328 243 b 483 394 419 243 483 300 b 328 553 483 490 418 553 b 176 394 244 553 176 490 b 328 243 175 304 243 243 "},"ğ":{"ha":717,"x_min":0,"x_max":0,"o":"m 343 763 b 175 940 236 763 175 838 l 264 940 b 343 849 264 885 293 849 b 419 940 393 849 419 885 l 510 940 b 343 763 510 836 446 763 m 675 643 l 675 536 l 563 536 b 601 394 588 496 601 449 b 436 153 601 278 535 189 l 658 22 b 342 -300 657 -157 536 -300 b 28 0 151 -300 29 -172 l 144 0 b 342 -187 144 -96 210 -187 b 535 -33 461 -187 524 -114 l 185 172 b 182 174 183 172 183 174 l 178 176 b 58 394 106 221 58 299 b 331 660 58 553 179 660 b 429 643 365 660 399 654 m 328 243 b 483 394 419 243 483 300 b 328 553 483 490 418 553 b 176 394 244 553 176 490 b 328 243 175 304 243 243 "},"ǧ":{"ha":717,"x_min":0,"x_max":0,"o":"m 406 765 l 282 765 l 153 950 l 251 950 l 344 856 l 438 950 l 535 950 m 675 643 l 675 536 l 563 536 b 601 394 588 496 601 449 b 436 153 601 278 535 189 l 658 22 b 342 -300 657 -157 536 -300 b 28 0 151 -300 29 -172 l 144 0 b 342 -187 144 -96 210 -187 b 535 -33 461 -187 524 -114 l 185 172 b 182 174 183 172 183 174 l 178 176 b 58 394 106 221 58 299 b 331 660 58 553 179 660 b 429 643 365 660 399 654 m 328 243 b 483 394 419 243 483 300 b 328 553 483 490 418 553 b 176 394 244 553 176 490 b 328 243 175 304 243 243 "},"ĝ":{"ha":717,"x_min":0,"x_max":0,"o":"m 347 860 l 254 765 l 156 765 l 285 950 l 408 950 l 538 765 l 440 765 m 675 643 l 675 536 l 563 536 b 601 394 588 496 601 449 b 436 153 601 278 535 189 l 658 22 b 342 -300 657 -157 536 -300 b 28 0 151 -300 29 -172 l 144 0 b 342 -187 144 -96 210 -187 b 535 -33 461 -187 524 -114 l 185 172 b 182 174 183 172 183 174 l 178 176 b 58 394 106 221 58 299 b 331 660 58 553 179 660 b 429 643 365 660 399 654 m 328 243 b 483 394 419 243 483 300 b 328 553 483 490 418 553 b 176 394 244 553 176 490 b 328 243 175 304 243 243 "},"ģ":{"ha":717,"x_min":0,"x_max":0,"o":"m 344 731 b 261 819 304 731 261 758 l 261 893 b 368 996 261 961 307 996 l 425 996 l 425 929 l 372 929 b 332 893 349 929 332 917 l 332 876 l 346 876 b 421 804 393 876 421 842 b 344 731 421 761 385 731 m 675 643 l 675 536 l 563 536 b 601 394 588 496 601 449 b 436 153 601 278 535 189 l 658 22 b 342 -300 657 -157 536 -300 b 28 0 151 -300 29 -172 l 144 0 b 342 -187 144 -96 210 -187 b 535 -33 461 -187 524 -114 l 185 172 b 182 174 183 172 183 174 l 178 176 b 58 394 106 221 58 299 b 331 660 58 553 179 660 b 429 643 365 660 399 654 m 328 243 b 483 394 419 243 483 300 b 328 553 483 490 418 553 b 176 394 244 553 176 490 b 328 243 175 304 243 243 "},"ġ":{"ha":717,"x_min":0,"x_max":0,"o":"m 343 779 b 267 858 299 779 267 815 b 343 933 267 900 299 933 b 421 858 390 933 421 900 b 343 779 421 815 390 779 m 675 643 l 675 536 l 563 536 b 601 394 588 496 601 449 b 436 153 601 278 535 189 l 658 22 b 342 -300 657 -157 536 -300 b 28 0 151 -300 29 -172 l 144 0 b 342 -187 144 -96 210 -187 b 535 -33 461 -187 524 -114 l 185 172 b 182 174 183 172 183 174 l 178 176 b 58 394 106 221 58 299 b 331 660 58 553 179 660 b 429 643 365 660 399 654 m 328 243 b 483 394 419 243 483 300 b 328 553 483 490 418 553 b 176 394 244 553 176 490 b 328 243 175 304 243 243 "},"h":{"ha":654,"x_min":0,"x_max":0,"o":"m 219 643 l 561 643 l 561 0 l 442 0 l 442 535 l 219 535 l 219 0 l 101 0 l 101 972 l 219 972 "},"ħ":{"ha":654,"x_min":0,"x_max":0,"o":"m 219 643 l 561 643 l 561 0 l 442 0 l 442 535 l 219 535 l 219 0 l 101 0 l 101 774 l 14 774 l 14 864 l 101 864 l 101 972 l 219 972 l 219 864 l 407 864 l 407 774 l 219 774 "},"ĥ":{"ha":654,"x_min":0,"x_max":0,"o":"m 249 1039 l 156 1133 l 63 1039 l -36 1039 l 93 1224 l 217 1224 l 346 1039 m 219 643 l 561 643 l 561 0 l 442 0 l 442 535 l 219 535 l 219 0 l 101 0 l 101 972 l 219 972 "},"i":{"ha":321,"x_min":0,"x_max":0,"o":"m 160 767 b 83 844 115 767 83 801 b 160 921 83 888 115 921 b 238 844 206 921 238 888 b 160 767 238 801 206 767 m 99 0 l 99 643 l 217 643 l 217 0 "},"ı":{"ha":319,"x_min":0,"x_max":0,"o":"m 101 0 l 101 643 l 218 643 l 218 0 "},"í":{"ha":319,"x_min":0,"x_max":0,"o":"m 94 765 l 172 956 l 300 956 l 179 765 m 101 0 l 101 643 l 218 643 l 218 0 "},"ĭ":{"ha":319,"x_min":0,"x_max":0,"o":"m 160 763 b -8 940 53 763 -8 838 l 81 940 b 160 849 81 885 110 849 b 236 940 210 849 236 885 l 326 940 b 160 763 326 836 263 763 m 101 0 l 101 643 l 218 643 l 218 0 "},"ǐ":{"ha":319,"x_min":0,"x_max":0,"o":"m 256 950 l 353 950 l 224 765 l 100 765 l -29 950 l 69 950 l 163 856 m 101 0 l 101 643 l 218 643 l 218 0 "},"î":{"ha":319,"x_min":0,"x_max":0,"o":"m 226 950 l 356 765 l 258 765 l 165 860 l 72 765 l -26 765 l 103 950 m 101 0 l 101 643 l 218 643 l 218 0 "},"ï":{"ha":319,"x_min":0,"x_max":0,"o":"m 42 788 b -32 861 -1 788 -32 818 b 42 933 -32 901 -1 933 b 114 860 85 933 114 901 b 42 788 114 818 85 788 m 285 788 b 211 861 240 788 211 818 b 285 933 211 901 240 933 b 357 860 325 933 357 901 b 285 788 357 818 325 788 m 101 0 l 101 643 l 218 643 l 218 0 "},"ì":{"ha":319,"x_min":0,"x_max":0,"o":"m 218 765 l 133 765 l 13 956 l 140 956 m 101 0 l 101 643 l 218 643 l 218 0 "},"ĳ":{"ha":644,"x_min":0,"x_max":0,"o":"m 483 767 b 407 844 440 767 407 801 b 483 922 407 888 440 922 b 563 844 529 922 563 888 b 483 767 563 801 529 767 m 160 767 b 83 844 115 767 83 801 b 160 921 83 888 115 921 b 238 844 206 921 238 888 b 160 767 238 801 206 767 m 99 0 l 99 643 l 217 643 l 217 0 m 422 643 l 540 643 l 540 -286 l 293 -286 l 293 -175 l 422 -175 "},"ī":{"ha":319,"x_min":0,"x_max":0,"o":"m 15 811 l 15 910 l 304 910 l 304 811 m 101 0 l 101 643 l 218 643 l 218 0 "},"į":{"ha":319,"x_min":0,"x_max":0,"o":"m 161 779 b 85 858 117 779 85 815 b 161 933 85 900 117 933 b 239 858 208 933 239 900 b 161 779 239 815 208 779 m 101 8 l 101 643 l 218 643 l 218 0 l 111 -111 b 86 -161 97 -125 86 -140 b 144 -211 86 -190 110 -211 l 211 -211 l 211 -303 l 122 -303 b -19 -175 42 -303 -19 -256 b 33 -64 -19 -135 -1 -101 "},"ĩ":{"ha":319,"x_min":0,"x_max":0,"o":"m 243 789 b 168 807 215 789 193 797 l 111 829 b 78 839 96 835 86 839 b 49 808 63 839 49 828 l 49 789 l -35 789 l -35 828 b 65 932 -35 894 10 932 b 139 914 90 932 115 924 l 193 892 b 231 882 211 885 219 882 b 258 913 246 882 258 893 l 258 932 l 343 932 l 343 893 b 243 789 343 826 299 789 m 101 0 l 101 643 l 218 643 l 218 0 "},"j":{"ha":344,"x_min":0,"x_max":0,"o":"m 183 767 b 107 844 140 767 107 801 b 183 922 107 888 140 922 b 263 844 229 922 263 888 b 183 767 263 801 229 767 m 122 643 l 240 643 l 240 -286 l -7 -286 l -7 -175 l 122 -175 "},"ȷ":{"ha":324,"x_min":0,"x_max":0,"o":"m 122 643 l 240 643 l 240 -286 l -7 -286 l -7 -175 l 122 -175 "},"ĵ":{"ha":324,"x_min":0,"x_max":0,"o":"m 250 950 l 379 765 l 282 765 l 189 860 l 96 765 l -3 765 l 126 950 m 122 -175 l 122 643 l 240 643 l 240 -286 l -7 -286 l -7 -175 "},"k":{"ha":604,"x_min":0,"x_max":0,"o":"m 600 0 l 463 0 l 219 346 l 219 0 l 101 0 l 101 972 l 219 972 l 219 374 l 411 643 l 546 643 l 342 358 "},"ķ":{"ha":604,"x_min":0,"x_max":0,"o":"m 342 358 l 600 0 l 463 0 l 219 346 l 219 0 l 101 0 l 101 972 l 219 972 l 219 374 l 411 643 l 546 643 m 331 -76 b 408 -158 368 -76 408 -103 l 408 -226 b 308 -322 408 -292 365 -322 l 256 -322 l 256 -261 l 304 -261 b 342 -226 326 -261 342 -249 l 342 -211 l 329 -211 b 260 -144 285 -211 260 -179 b 331 -76 260 -104 293 -76 "},"ĸ":{"ha":604,"x_min":0,"x_max":0,"o":"m 600 0 l 463 0 l 219 346 l 219 0 l 101 0 l 101 643 l 219 643 l 219 374 l 411 643 l 546 643 l 342 358 "},"l":{"ha":321,"x_min":0,"x_max":0,"o":"m 101 0 l 101 972 l 219 972 l 219 0 "},"ĺ":{"ha":321,"x_min":0,"x_max":0,"o":"m 104 1039 l 182 1229 l 310 1229 l 189 1039 m 101 0 l 101 972 l 219 972 l 219 0 "},"ľ":{"ha":417,"x_min":0,"x_max":0,"o":"m 101 0 l 101 972 l 219 972 l 219 0 m 289 728 l 289 972 l 417 972 l 372 728 "},"ļ":{"ha":321,"x_min":0,"x_max":0,"o":"m 219 972 l 219 0 l 101 0 l 101 972 m 156 -76 b 233 -158 193 -76 233 -103 l 233 -226 b 133 -322 233 -292 190 -322 l 81 -322 l 81 -261 l 129 -261 b 167 -226 151 -261 167 -249 l 167 -211 l 156 -211 b 85 -144 111 -211 85 -179 b 156 -76 85 -104 118 -76 "},"ŀ":{"ha":488,"x_min":0,"x_max":0,"o":"m 101 0 l 101 972 l 219 972 l 219 0 m 393 411 b 300 503 343 411 300 453 b 393 593 300 554 343 593 b 486 503 444 593 486 554 b 393 411 486 453 444 411 "},"ł":{"ha":426,"x_min":0,"x_max":0,"o":"m 385 656 l 385 536 l 265 457 l 265 0 l 147 0 l 147 378 l 42 308 l 42 428 l 147 497 l 147 972 l 265 972 l 265 576 "},"m":{"ha":960,"x_min":0,"x_max":0,"o":"m 867 643 l 867 0 l 749 0 l 749 535 l 547 535 l 547 0 l 429 0 l 429 535 l 219 535 l 219 0 l 101 0 l 101 643 "},"n":{"ha":654,"x_min":0,"x_max":0,"o":"m 101 0 l 101 643 l 561 643 l 561 0 l 442 0 l 442 535 l 219 535 l 219 0 "},"ń":{"ha":654,"x_min":0,"x_max":0,"o":"m 275 765 l 353 956 l 481 956 l 360 765 m 101 0 l 101 643 l 561 643 l 561 0 l 442 0 l 442 535 l 219 535 l 219 0 "},"ň":{"ha":654,"x_min":0,"x_max":0,"o":"m 404 765 l 281 765 l 151 950 l 250 950 l 343 856 l 436 950 l 533 950 m 101 643 l 561 643 l 561 0 l 442 0 l 442 535 l 219 535 l 219 0 l 101 0 "},"ņ":{"ha":654,"x_min":0,"x_max":0,"o":"m 101 643 l 561 643 l 561 0 l 442 0 l 442 535 l 219 535 l 219 0 l 101 0 m 326 -76 b 404 -158 364 -76 404 -103 l 404 -226 b 304 -322 404 -292 361 -322 l 251 -322 l 251 -261 l 300 -261 b 338 -226 322 -261 338 -249 l 338 -211 l 326 -211 b 256 -144 282 -211 256 -179 b 326 -76 256 -104 289 -76 "},"ŋ":{"ha":654,"x_min":0,"x_max":0,"o":"m 101 0 l 101 643 l 561 643 l 561 -286 l 314 -286 l 314 -175 l 442 -175 l 442 535 l 219 535 l 219 0 "},"ñ":{"ha":654,"x_min":0,"x_max":0,"o":"m 424 789 b 349 807 396 789 374 797 l 292 829 b 258 839 276 835 267 839 b 229 808 243 839 229 828 l 229 789 l 146 789 l 146 828 b 246 932 146 894 190 932 b 319 914 271 932 296 924 l 374 892 b 411 882 392 885 400 882 b 439 913 426 882 439 893 l 439 932 l 524 932 l 524 893 b 424 789 524 826 479 789 m 101 0 l 101 643 l 561 643 l 561 0 l 442 0 l 442 535 l 219 535 l 219 0 "},"o":{"ha":822,"x_min":0,"x_max":0,"o":"m 411 -17 b 67 321 219 -17 67 129 b 411 660 67 519 219 660 b 756 321 603 660 756 518 b 411 -17 756 129 603 -17 m 411 96 b 631 321 528 96 631 181 b 411 547 631 461 528 547 b 192 321 293 547 192 461 b 411 96 192 181 294 96 "},"ó":{"ha":822,"x_min":0,"x_max":0,"o":"m 344 765 l 422 956 l 550 956 l 429 765 m 411 -17 b 67 321 219 -17 67 129 b 411 660 67 519 219 660 b 756 321 603 660 756 518 b 411 -17 756 129 603 -17 m 411 96 b 631 321 528 96 631 181 b 411 547 631 461 528 547 b 192 321 293 547 192 461 b 411 96 192 181 294 96 "},"ŏ":{"ha":822,"x_min":0,"x_max":0,"o":"m 410 763 b 242 940 303 763 242 838 l 331 940 b 410 849 331 885 360 849 b 486 940 460 849 486 885 l 576 940 b 410 763 576 836 513 763 m 411 -17 b 67 321 219 -17 67 129 b 411 660 67 519 219 660 b 756 321 603 660 756 518 b 411 -17 756 129 603 -17 m 411 96 b 631 321 528 96 631 181 b 411 547 631 461 528 547 b 192 321 293 547 192 461 b 411 96 192 181 294 96 "},"ǒ":{"ha":822,"x_min":0,"x_max":0,"o":"m 474 765 l 350 765 l 221 950 l 319 950 l 413 856 l 506 950 l 603 950 m 411 660 b 756 321 603 660 756 518 b 411 -17 756 129 603 -17 b 67 321 219 -17 67 129 b 411 660 67 519 219 660 m 411 96 b 631 321 528 96 631 181 b 411 547 631 461 528 547 b 192 321 293 547 192 461 b 411 96 192 181 294 96 "},"ô":{"ha":822,"x_min":0,"x_max":0,"o":"m 415 860 l 322 765 l 224 765 l 353 950 l 476 950 l 606 765 l 508 765 m 411 660 b 756 321 603 660 756 518 b 411 -17 756 129 603 -17 b 67 321 219 -17 67 129 b 411 660 67 519 219 660 m 411 96 b 631 321 528 96 631 181 b 411 547 631 461 528 547 b 192 321 293 547 192 461 b 411 96 192 181 294 96 "},"ö":{"ha":822,"x_min":0,"x_max":0,"o":"m 292 788 b 218 861 249 788 218 818 b 292 933 218 901 249 933 b 364 860 335 933 364 901 b 292 788 364 818 335 788 m 535 788 b 461 861 490 788 461 818 b 535 933 461 901 490 933 b 607 860 575 933 607 901 b 535 788 607 818 575 788 m 411 -17 b 67 321 219 -17 67 129 b 411 660 67 519 219 660 b 756 321 603 660 756 518 b 411 -17 756 129 603 -17 m 411 96 b 631 321 528 96 631 181 b 411 547 631 461 528 547 b 192 321 293 547 192 461 b 411 96 192 181 294 96 "},"ò":{"ha":822,"x_min":0,"x_max":0,"o":"m 468 765 l 383 765 l 263 956 l 390 956 m 411 -17 b 67 321 219 -17 67 129 b 411 660 67 519 219 660 b 756 321 603 660 756 518 b 411 -17 756 129 603 -17 m 411 96 b 631 321 528 96 631 181 b 411 547 631 461 528 547 b 192 321 293 547 192 461 b 411 96 192 181 294 96 "},"ő":{"ha":822,"x_min":0,"x_max":0,"o":"m 263 765 l 343 961 l 464 961 l 344 765 m 460 765 l 540 961 l 664 961 l 543 765 m 411 -17 b 67 321 219 -17 67 129 b 411 660 67 519 219 660 b 756 321 603 660 756 518 b 411 -17 756 129 603 -17 m 411 96 b 631 321 528 96 631 181 b 411 547 631 461 528 547 b 192 321 293 547 192 461 b 411 96 192 181 294 96 "},"ō":{"ha":822,"x_min":0,"x_max":0,"o":"m 251 811 l 251 910 l 578 910 l 578 811 m 411 -17 b 67 321 219 -17 67 129 b 411 660 67 519 219 660 b 756 321 603 660 756 518 b 411 -17 756 129 603 -17 m 411 96 b 631 321 528 96 631 181 b 411 547 631 461 528 547 b 192 321 293 547 192 461 b 411 96 192 181 294 96 "},"ø":{"ha":822,"x_min":0,"x_max":0,"o":"m 657 563 b 756 321 718 503 756 418 b 411 -17 756 129 603 -17 b 244 24 350 -17 294 -3 l 178 -64 l 96 -3 l 163 85 b 67 321 103 144 67 228 b 411 660 67 519 219 660 b 574 622 469 660 525 646 l 644 715 l 726 654 m 192 321 b 236 181 192 264 208 217 l 501 529 b 411 547 474 540 443 547 b 192 321 293 547 192 461 m 411 96 b 631 321 528 96 631 181 b 583 467 631 379 613 429 l 315 117 b 411 96 344 103 378 96 "},"õ":{"ha":822,"x_min":0,"x_max":0,"o":"m 493 789 b 418 807 465 789 443 797 l 361 829 b 328 839 346 835 336 839 b 299 808 313 839 299 828 l 299 789 l 215 789 l 215 828 b 315 932 215 894 260 932 b 389 914 340 932 365 924 l 443 892 b 481 882 461 885 469 882 b 508 913 496 882 508 893 l 508 932 l 593 932 l 593 893 b 493 789 593 826 549 789 m 411 -17 b 67 321 219 -17 67 129 b 411 660 67 519 219 660 b 756 321 603 660 756 518 b 411 -17 756 129 603 -17 m 411 96 b 631 321 528 96 631 181 b 411 547 631 461 528 547 b 192 321 293 547 192 461 b 411 96 192 181 294 96 "},"œ":{"ha":1363,"x_min":0,"x_max":0,"o":"m 1296 332 b 1293 278 1296 314 1294 288 l 760 278 b 965 96 776 174 854 96 b 1160 190 1057 96 1128 143 l 1253 124 b 965 -17 1190 36 1082 -17 b 692 122 851 -17 751 36 b 411 -17 629 38 528 -17 b 67 321 219 -17 67 129 b 411 660 67 519 219 660 b 692 522 528 660 631 608 b 965 660 751 607 849 660 b 1296 332 1151 660 1296 525 m 1165 386 b 964 550 1153 479 1068 550 b 763 386 858 550 782 476 m 411 96 b 631 321 528 96 631 181 b 411 547 631 461 528 547 b 192 321 293 547 192 461 b 411 96 192 181 294 96 "},"p":{"ha":800,"x_min":0,"x_max":0,"o":"m 101 -286 l 101 643 l 219 643 l 219 613 b 390 660 268 643 328 660 b 735 322 583 660 735 517 b 390 -17 735 128 583 -17 b 219 32 328 -17 269 1 l 219 -286 m 390 97 b 610 322 506 97 610 185 b 390 547 610 460 506 547 b 219 475 315 547 260 517 l 219 169 b 390 97 260 126 315 97 "},"þ":{"ha":801,"x_min":0,"x_max":0,"o":"m 393 660 b 735 324 582 660 735 521 b 393 -17 735 126 586 -17 b 219 32 331 -17 271 3 l 219 -286 l 101 -286 l 101 972 l 219 972 l 219 611 b 393 660 271 640 332 660 m 392 94 b 610 324 525 94 610 196 b 392 549 610 463 513 549 b 219 472 313 549 254 515 l 219 174 b 392 94 254 132 313 94 "},"q":{"ha":797,"x_min":0,"x_max":0,"o":"m 582 643 l 700 643 l 700 -286 l 582 -286 l 582 32 b 410 -17 532 1 472 -17 b 67 322 218 -17 67 128 b 411 660 67 517 218 660 b 582 611 472 660 532 643 m 411 97 b 582 169 485 97 542 126 l 582 475 b 411 547 542 517 485 547 b 192 322 294 547 192 460 b 411 97 192 185 294 97 "},"r":{"ha":476,"x_min":0,"x_max":0,"o":"m 424 643 l 424 528 l 219 528 l 219 0 l 101 0 l 101 643 "},"ŕ":{"ha":476,"x_min":0,"x_max":0,"o":"m 213 765 l 290 956 l 418 956 l 297 765 m 424 643 l 424 528 l 219 528 l 219 0 l 101 0 l 101 643 "},"ř":{"ha":476,"x_min":0,"x_max":0,"o":"m 342 765 l 218 765 l 89 950 l 188 950 l 281 856 l 374 950 l 471 950 m 101 0 l 101 643 l 424 643 l 424 528 l 219 528 l 219 0 "},"ŗ":{"ha":476,"x_min":0,"x_max":0,"o":"m 101 643 l 424 643 l 424 528 l 219 528 l 219 0 l 101 0 m 189 -76 b 267 -158 226 -76 267 -103 l 267 -226 b 167 -322 267 -292 224 -322 l 114 -322 l 114 -261 l 163 -261 b 200 -226 185 -261 200 -249 l 200 -211 l 189 -211 b 118 -144 144 -211 118 -179 b 189 -76 118 -104 151 -76 "},"s":{"ha":556,"x_min":0,"x_max":0,"o":"m 114 0 l 114 107 l 275 107 b 375 193 331 107 375 139 b 301 278 375 238 351 264 l 231 300 b 88 474 156 322 88 372 b 275 643 88 568 158 643 l 443 643 l 443 539 l 275 539 b 200 474 231 539 200 511 b 268 399 200 433 228 411 l 343 375 b 494 194 422 351 494 297 b 275 0 494 78 403 0 "},"ś":{"ha":556,"x_min":0,"x_max":0,"o":"m 231 765 l 308 956 l 436 956 l 315 765 m 114 0 l 114 107 l 275 107 b 375 193 331 107 375 139 b 301 278 375 238 351 264 l 231 300 b 88 474 156 322 88 372 b 275 643 88 568 158 643 l 443 643 l 443 539 l 275 539 b 200 474 231 539 200 511 b 268 399 200 433 228 411 l 343 375 b 494 194 422 351 494 297 b 275 0 494 78 403 0 "},"š":{"ha":556,"x_min":0,"x_max":0,"o":"m 358 765 l 235 765 l 106 950 l 204 950 l 297 856 l 390 950 l 488 950 m 343 375 b 494 194 422 351 494 297 b 275 0 494 78 403 0 l 114 0 l 114 107 l 275 107 b 375 193 331 107 375 139 b 301 278 375 238 351 264 l 231 300 b 88 474 156 322 88 372 b 275 643 88 568 158 643 l 443 643 l 443 539 l 275 539 b 200 474 231 539 200 511 b 268 399 200 433 228 411 "},"ş":{"ha":556,"x_min":0,"x_max":0,"o":"m 494 194 b 314 3 494 90 421 17 l 300 -50 l 310 -50 b 439 -176 385 -50 439 -103 b 310 -303 439 -244 386 -303 l 200 -303 l 200 -228 l 296 -228 b 354 -176 331 -228 354 -206 b 297 -122 354 -144 331 -122 l 214 -122 l 236 0 l 114 0 l 114 107 l 275 107 b 375 193 331 107 375 139 b 301 278 375 238 351 264 l 231 300 b 88 474 156 322 88 372 b 275 643 88 568 158 643 l 443 643 l 443 539 l 275 539 b 200 474 231 539 200 511 b 268 399 200 433 228 411 l 343 375 b 494 194 422 351 494 297 "},"ŝ":{"ha":556,"x_min":0,"x_max":0,"o":"m 301 860 l 208 765 l 110 765 l 239 950 l 363 950 l 492 765 l 394 765 m 343 375 b 494 194 422 351 494 297 b 275 0 494 78 403 0 l 114 0 l 114 107 l 275 107 b 375 193 331 107 375 139 b 301 278 375 238 351 264 l 231 300 b 88 474 156 322 88 372 b 275 643 88 568 158 643 l 443 643 l 443 539 l 275 539 b 200 474 231 539 200 511 b 268 399 200 433 228 411 "},"ș":{"ha":556,"x_min":0,"x_max":0,"o":"m 343 375 b 494 194 422 351 494 297 b 275 0 494 78 403 0 l 114 0 l 114 107 l 275 107 b 375 193 331 107 375 139 b 301 278 375 238 351 264 l 231 300 b 88 474 156 322 88 372 b 275 643 88 568 158 643 l 443 643 l 443 539 l 275 539 b 200 474 231 539 200 511 b 268 399 200 433 228 411 m 275 -76 b 353 -158 313 -76 353 -103 l 353 -226 b 253 -322 353 -292 310 -322 l 200 -322 l 200 -261 l 249 -261 b 286 -226 271 -261 286 -249 l 286 -211 l 275 -211 b 204 -144 231 -211 204 -179 b 275 -76 204 -104 238 -76 "},"ß":{"ha":701,"x_min":0,"x_max":0,"o":"m 454 319 b 665 24 557 289 665 194 b 351 -300 665 -167 521 -300 b 183 -258 294 -300 235 -286 l 224 -157 b 351 -187 258 -175 303 -187 b 550 24 469 -187 550 -89 b 299 242 550 158 443 242 l 299 246 l 440 532 l 201 532 l 201 0 l 83 0 l 83 972 l 346 972 l 346 865 l 201 865 l 201 643 l 617 643 l 617 639 "},"t":{"ha":439,"x_min":0,"x_max":0,"o":"m 265 103 l 372 103 l 372 -1 l 147 -1 l 147 539 l 39 539 l 39 643 l 154 643 l 154 978 l 265 978 l 265 643 l 372 643 l 372 539 l 265 539 "},"ŧ":{"ha":439,"x_min":0,"x_max":0,"o":"m 372 539 l 265 539 l 265 419 l 371 419 l 371 318 l 265 318 l 265 103 l 372 103 l 372 -1 l 147 -1 l 147 318 l 39 318 l 39 419 l 147 419 l 147 539 l 39 539 l 39 643 l 154 643 l 154 978 l 265 978 l 265 643 l 372 643 "},"ť":{"ha":485,"x_min":0,"x_max":0,"o":"m 335 765 l 335 1010 l 463 1010 l 417 765 m 265 103 l 372 103 l 372 -1 l 147 -1 l 147 539 l 39 539 l 39 643 l 154 643 l 154 978 l 265 978 l 265 643 l 372 643 l 372 539 l 265 539 "},"ţ":{"ha":439,"x_min":0,"x_max":0,"o":"m 310 -50 b 439 -176 385 -50 439 -103 b 310 -303 439 -244 386 -303 l 200 -303 l 200 -228 l 296 -228 b 354 -176 331 -228 354 -206 b 297 -122 354 -144 331 -122 l 214 -122 l 236 -1 l 147 -1 l 147 539 l 39 539 l 39 643 l 154 643 l 154 978 l 265 978 l 265 643 l 372 643 l 372 539 l 265 539 l 265 103 l 372 103 l 372 -1 l 313 -1 l 300 -50 "},"ț":{"ha":439,"x_min":0,"x_max":0,"o":"m 372 539 l 265 539 l 265 103 l 372 103 l 372 -1 l 147 -1 l 147 539 l 39 539 l 39 643 l 154 643 l 154 978 l 265 978 l 265 643 l 372 643 m 275 -76 b 353 -158 313 -76 353 -103 l 353 -226 b 253 -322 353 -292 310 -322 l 200 -322 l 200 -261 l 249 -261 b 286 -226 271 -261 286 -249 l 286 -211 l 275 -211 b 204 -144 231 -211 204 -179 b 275 -76 204 -104 238 -76 "},"u":{"ha":656,"x_min":0,"x_max":0,"o":"m 439 643 l 557 643 l 557 0 l 439 0 l 439 39 b 303 -17 413 11 372 -17 b 97 204 183 -17 97 74 l 97 643 l 217 643 l 217 213 b 331 99 217 147 261 99 b 439 176 392 99 428 140 "},"ú":{"ha":656,"x_min":0,"x_max":0,"o":"m 258 765 l 336 956 l 464 956 l 343 765 m 439 643 l 557 643 l 557 0 l 439 0 l 439 39 b 303 -17 413 11 372 -17 b 97 204 183 -17 97 74 l 97 643 l 217 643 l 217 213 b 331 99 217 147 261 99 b 439 176 392 99 428 140 "},"ŭ":{"ha":656,"x_min":0,"x_max":0,"o":"m 325 763 b 157 940 218 763 157 838 l 246 940 b 325 849 246 885 275 849 b 401 940 375 849 401 885 l 492 940 b 325 763 492 836 428 763 m 439 643 l 557 643 l 557 0 l 439 0 l 439 39 b 303 -17 413 11 372 -17 b 97 204 183 -17 97 74 l 97 643 l 217 643 l 217 213 b 331 99 217 147 261 99 b 439 176 392 99 428 140 "},"û":{"ha":656,"x_min":0,"x_max":0,"o":"m 329 860 l 236 765 l 138 765 l 267 950 l 390 950 l 519 765 l 422 765 m 439 643 l 557 643 l 557 0 l 439 0 l 439 39 b 303 -17 413 11 372 -17 b 97 204 183 -17 97 74 l 97 643 l 217 643 l 217 213 b 331 99 217 147 261 99 b 439 176 392 99 428 140 "},"ü":{"ha":656,"x_min":0,"x_max":0,"o":"m 206 788 b 132 861 163 788 132 818 b 206 933 132 901 163 933 b 278 860 249 933 278 901 b 206 788 278 818 249 788 m 449 788 b 375 861 404 788 375 818 b 449 933 375 901 404 933 b 521 860 489 933 521 901 b 449 788 521 818 489 788 m 439 643 l 557 643 l 557 0 l 439 0 l 439 39 b 303 -17 413 11 372 -17 b 97 204 183 -17 97 74 l 97 643 l 217 643 l 217 213 b 331 99 217 147 261 99 b 439 176 392 99 428 140 "},"ù":{"ha":656,"x_min":0,"x_max":0,"o":"m 382 765 l 297 765 l 176 956 l 304 956 m 439 643 l 557 643 l 557 0 l 439 0 l 439 39 b 303 -17 413 11 372 -17 b 97 204 183 -17 97 74 l 97 643 l 217 643 l 217 213 b 331 99 217 147 261 99 b 439 176 392 99 428 140 "},"ű":{"ha":656,"x_min":0,"x_max":0,"o":"m 176 765 l 257 961 l 378 961 l 258 765 m 374 765 l 454 961 l 578 961 l 457 765 m 439 643 l 557 643 l 557 0 l 439 0 l 439 39 b 303 -17 413 11 372 -17 b 97 204 183 -17 97 74 l 97 643 l 217 643 l 217 213 b 331 99 217 147 261 99 b 439 176 392 99 428 140 "},"ū":{"ha":656,"x_min":0,"x_max":0,"o":"m 167 811 l 167 910 l 493 910 l 493 811 m 439 643 l 557 643 l 557 0 l 439 0 l 439 39 b 303 -17 413 11 372 -17 b 97 204 183 -17 97 74 l 97 643 l 217 643 l 217 213 b 331 99 217 147 261 99 b 439 176 392 99 428 140 "},"ų":{"ha":656,"x_min":0,"x_max":0,"o":"m 557 0 l 450 -111 b 425 -161 436 -125 425 -140 b 483 -211 425 -190 449 -211 l 550 -211 l 550 -303 l 461 -303 b 319 -175 381 -303 319 -256 b 372 -64 319 -135 338 -101 l 439 7 l 439 39 b 303 -17 413 11 372 -17 b 97 204 183 -17 97 74 l 97 643 l 217 643 l 217 213 b 331 99 217 147 261 99 b 439 176 392 99 428 140 l 439 643 l 557 643 "},"ů":{"ha":656,"x_min":0,"x_max":0,"o":"m 326 722 b 193 851 249 722 193 778 b 325 979 193 925 249 979 b 460 851 404 979 460 925 b 326 722 460 778 403 722 m 326 789 b 388 851 363 789 388 815 b 325 914 388 888 363 914 b 265 851 290 914 265 888 b 326 789 265 815 290 789 m 439 643 l 557 643 l 557 0 l 439 0 l 439 39 b 303 -17 413 11 372 -17 b 97 204 183 -17 97 74 l 97 643 l 217 643 l 217 213 b 331 99 217 147 261 99 b 439 176 392 99 428 140 "},"ũ":{"ha":656,"x_min":0,"x_max":0,"o":"m 419 793 b 344 811 392 793 369 801 l 288 833 b 254 843 272 839 263 843 b 225 813 239 843 225 832 l 225 793 l 142 793 l 142 832 b 242 936 142 899 186 936 b 315 918 267 936 292 928 l 369 896 b 407 886 388 889 396 886 b 435 917 422 886 435 897 l 435 936 l 519 936 l 519 897 b 419 793 519 831 475 793 m 439 643 l 557 643 l 557 0 l 439 0 l 439 39 b 303 -17 413 11 372 -17 b 97 204 183 -17 97 74 l 97 643 l 217 643 l 217 213 b 331 99 217 147 261 99 b 439 176 392 99 428 140 "},"v":{"ha":628,"x_min":0,"x_max":0,"o":"m 469 643 l 603 643 l 376 0 l 251 0 l 25 643 l 154 643 l 313 147 "},"w":{"ha":965,"x_min":0,"x_max":0,"o":"m 786 643 l 911 643 l 728 0 l 632 0 l 486 379 l 335 0 l 251 0 l 56 643 l 183 643 l 304 203 l 481 650 l 486 650 l 672 206 "},"ẃ":{"ha":965,"x_min":0,"x_max":0,"o":"m 624 960 l 503 769 l 418 769 l 496 960 m 786 643 l 911 643 l 728 0 l 632 0 l 486 379 l 335 0 l 251 0 l 56 643 l 183 643 l 304 203 l 481 650 l 486 650 l 672 206 "},"ŵ":{"ha":965,"x_min":0,"x_max":0,"o":"m 489 864 l 396 769 l 297 769 l 426 954 l 550 954 l 679 769 l 582 769 m 786 643 l 911 643 l 728 0 l 632 0 l 486 379 l 335 0 l 251 0 l 56 643 l 183 643 l 304 203 l 481 650 l 486 650 l 672 206 "},"ẅ":{"ha":965,"x_min":0,"x_max":0,"o":"m 365 792 b 292 865 322 792 292 822 b 365 938 292 906 322 938 b 438 864 408 938 438 906 b 365 792 438 822 408 792 m 608 792 b 535 865 564 792 535 822 b 608 938 535 906 564 938 b 681 864 649 938 681 906 b 608 792 681 822 649 792 m 786 643 l 911 643 l 728 0 l 632 0 l 486 379 l 335 0 l 251 0 l 56 643 l 183 643 l 304 203 l 481 650 l 486 650 l 672 206 "},"ẁ":{"ha":965,"x_min":0,"x_max":0,"o":"m 542 769 l 457 769 l 336 960 l 464 960 m 786 643 l 911 643 l 728 0 l 632 0 l 486 379 l 335 0 l 251 0 l 56 643 l 183 643 l 304 203 l 481 650 l 486 650 l 672 206 "},"x":{"ha":575,"x_min":0,"x_max":0,"o":"m 351 333 l 536 0 l 407 0 l 288 218 l 168 0 l 39 0 l 224 333 l 53 643 l 179 643 l 288 447 l 396 643 l 521 643 "},"y":{"ha":776,"x_min":0,"x_max":0,"o":"m 161 -286 l 331 57 l 25 643 l 163 643 l 397 194 l 614 643 l 751 643 l 296 -286 "},"ý":{"ha":776,"x_min":0,"x_max":0,"o":"m 322 765 l 400 956 l 528 956 l 407 765 m 161 -286 l 331 57 l 25 643 l 163 643 l 397 194 l 614 643 l 751 643 l 296 -286 "},"ŷ":{"ha":776,"x_min":0,"x_max":0,"o":"m 393 860 l 300 765 l 201 765 l 331 950 l 454 950 l 583 765 l 486 765 m 614 643 l 751 643 l 296 -286 l 161 -286 l 331 57 l 25 643 l 163 643 l 397 194 "},"ÿ":{"ha":776,"x_min":0,"x_max":0,"o":"m 269 788 b 196 861 226 788 196 818 b 269 933 196 901 226 933 b 342 860 313 933 342 901 b 269 788 342 818 313 788 m 513 788 b 439 861 468 788 439 818 b 513 933 439 901 468 933 b 585 860 553 933 585 901 b 513 788 585 818 553 788 m 161 -286 l 331 57 l 25 643 l 163 643 l 397 194 l 614 643 l 751 643 l 296 -286 "},"ỳ":{"ha":776,"x_min":0,"x_max":0,"o":"m 446 765 l 361 765 l 240 956 l 368 956 m 161 -286 l 331 57 l 25 643 l 163 643 l 397 194 l 614 643 l 751 643 l 296 -286 "},"z":{"ha":642,"x_min":0,"x_max":0,"o":"m 211 111 l 568 111 l 568 0 l 74 0 l 74 111 l 414 536 l 85 536 l 85 643 l 561 643 l 561 540 "},"ź":{"ha":642,"x_min":0,"x_max":0,"o":"m 457 956 l 336 765 l 251 765 l 329 956 m 211 111 l 568 111 l 568 0 l 74 0 l 74 111 l 414 536 l 85 536 l 85 643 l 561 643 l 561 540 "},"ž":{"ha":642,"x_min":0,"x_max":0,"o":"m 381 765 l 257 765 l 128 950 l 226 950 l 319 856 l 413 950 l 510 950 m 211 111 l 568 111 l 568 0 l 74 0 l 74 111 l 414 536 l 85 536 l 85 643 l 561 643 l 561 540 "},"ż":{"ha":642,"x_min":0,"x_max":0,"o":"m 318 779 b 242 858 274 779 242 815 b 318 933 242 900 274 933 b 396 858 365 933 396 900 b 318 779 396 815 365 779 m 211 111 l 568 111 l 568 0 l 74 0 l 74 111 l 414 536 l 85 536 l 85 643 l 561 643 l 561 540 "},"ª":{"ha":633,"x_min":0,"x_max":0,"o":"m 557 431 l 456 431 l 444 538 b 268 417 418 468 350 417 b 76 606 158 417 76 503 b 268 793 76 710 158 793 b 426 710 336 793 393 760 l 407 894 l 126 894 l 126 986 l 497 986 m 274 513 b 372 610 329 513 372 556 b 274 704 372 663 329 704 b 175 610 217 704 175 663 b 274 513 175 556 217 513 "},"º":{"ha":735,"x_min":0,"x_max":0,"o":"m 367 424 b 76 703 206 424 76 542 b 368 985 76 868 210 985 b 658 703 528 985 658 865 b 367 424 658 543 528 424 m 367 522 b 549 703 475 522 549 599 b 367 885 549 810 472 885 b 185 703 261 885 185 810 b 367 522 185 596 260 522 "},"¹":{"ha":492,"x_min":0,"x_max":0,"o":"m 313 503 l 418 503 l 418 422 l 75 422 l 75 503 l 226 503 l 226 894 l 89 894 l 89 972 l 313 972 "},"²":{"ha":499,"x_min":0,"x_max":0,"o":"m 186 501 l 424 501 l 424 422 l 79 422 l 79 501 l 285 726 b 331 819 307 750 329 782 b 243 901 331 865 294 901 b 156 815 192 901 156 864 l 156 790 l 75 790 l 75 815 b 244 983 75 904 139 983 b 417 819 350 983 417 910 b 344 672 417 756 375 706 "},"³":{"ha":514,"x_min":0,"x_max":0,"o":"m 314 747 b 439 588 386 731 439 667 b 257 411 439 489 358 411 b 75 582 157 411 78 476 l 157 582 b 257 492 163 522 201 492 b 350 588 313 492 350 532 b 240 685 350 649 301 685 l 172 685 l 172 690 l 332 894 l 97 894 l 97 972 l 429 972 l 429 894 "},"⁄":{"ha":661,"x_min":0,"x_max":0,"o":"m 35 0 l 529 972 l 626 972 l 131 0 "},"½":{"ha":1193,"x_min":0,"x_max":0,"o":"m 418 503 l 418 422 l 75 422 l 75 503 l 226 503 l 226 894 l 89 894 l 89 972 l 313 972 l 313 503 m 811 972 l 908 972 l 413 0 l 317 0 m 871 79 l 1108 79 l 1108 0 l 764 0 l 764 79 l 969 304 b 1015 397 992 328 1014 360 b 928 479 1015 443 979 479 b 840 393 876 479 840 442 l 840 368 l 760 368 l 760 393 b 929 561 760 482 824 561 b 1101 397 1035 561 1101 488 b 1029 250 1101 333 1060 283 "},"¼":{"ha":1171,"x_min":0,"x_max":0,"o":"m 418 503 l 418 422 l 75 422 l 75 503 l 226 503 l 226 894 l 89 894 l 89 972 l 313 972 l 313 503 m 811 972 l 908 972 l 413 0 l 317 0 m 1097 197 l 1097 119 l 1029 119 l 1029 0 l 943 0 l 943 119 l 681 119 l 681 197 l 849 550 l 938 550 l 772 197 l 943 197 l 943 365 l 1029 365 l 1029 197 "},"¾":{"ha":1171,"x_min":0,"x_max":0,"o":"m 435 588 b 253 411 435 486 356 411 b 75 582 153 411 78 476 l 157 582 b 253 492 161 522 199 492 b 347 588 313 492 347 529 b 240 685 347 656 299 685 l 169 685 l 169 690 l 326 894 l 94 894 l 94 972 l 425 972 l 425 894 l 314 747 b 435 588 385 732 435 668 m 811 972 l 908 972 l 413 0 l 317 0 m 1097 197 l 1097 119 l 1029 119 l 1029 0 l 943 0 l 943 119 l 681 119 l 681 197 l 849 550 l 938 550 l 772 197 l 943 197 l 943 365 l 1029 365 l 1029 197 "},".":{"ha":374,"x_min":0,"x_max":0,"o":"m 188 -19 b 94 72 138 -19 94 22 b 188 163 94 124 138 163 b 279 72 238 163 279 124 b 188 -19 279 22 238 -19 "},",":{"ha":379,"x_min":0,"x_max":0,"o":"m 189 163 b 290 56 239 163 290 128 l 290 -42 b 158 -164 290 -121 231 -164 l 97 -164 l 97 -92 l 158 -92 b 210 -42 189 -92 210 -71 l 210 -17 l 189 -17 b 94 72 132 -17 94 21 b 189 163 94 121 135 163 "},":":{"ha":374,"x_min":0,"x_max":0,"o":"m 188 481 b 94 572 138 481 94 522 b 188 663 94 624 138 663 b 279 572 238 663 279 624 b 188 481 279 522 238 481 m 188 -19 b 94 72 138 -19 94 22 b 188 163 94 124 138 163 b 279 72 238 163 279 124 b 188 -19 279 22 238 -19 "},";":{"ha":376,"x_min":0,"x_max":0,"o":"m 188 481 b 94 572 138 481 94 522 b 188 663 94 624 138 663 b 279 572 238 663 279 624 b 188 481 279 522 238 481 m 189 163 b 290 56 239 163 290 128 l 290 -42 b 158 -164 290 -121 231 -164 l 97 -164 l 97 -92 l 158 -92 b 210 -42 189 -92 210 -71 l 210 -17 l 189 -17 b 94 72 132 -17 94 21 b 189 163 94 121 135 163 "},"…":{"ha":1196,"x_min":0,"x_max":0,"o":"m 188 -19 b 94 72 138 -19 94 22 b 188 163 94 124 138 163 b 279 72 238 163 279 124 b 188 -19 279 22 238 -19 m 597 -19 b 506 72 549 -19 506 22 b 597 163 506 124 549 163 b 690 72 649 163 690 124 b 597 -19 690 22 649 -19 m 1010 -19 b 917 72 960 -19 917 22 b 1010 163 917 124 960 163 b 1103 72 1061 163 1103 124 b 1010 -19 1103 22 1061 -19 "},"!":{"ha":424,"x_min":0,"x_max":0,"o":"m 178 292 l 121 972 l 301 972 l 247 292 m 213 -19 b 119 72 163 -19 119 22 b 213 163 119 124 163 163 b 304 72 263 163 304 124 b 213 -19 304 22 263 -19 "},"¡":{"ha":424,"x_min":0,"x_max":0,"o":"m 213 779 b 304 688 263 779 304 738 b 213 597 304 636 263 597 b 119 688 163 597 119 636 b 213 779 119 738 163 779 m 178 468 l 247 468 l 301 -212 l 121 -212 "},"?":{"ha":740,"x_min":0,"x_max":0,"o":"m 313 264 l 292 542 l 319 542 b 526 721 438 542 526 610 b 349 878 526 807 451 878 b 176 803 282 878 224 853 l 108 886 b 349 990 157 940 242 990 b 646 721 517 990 646 867 b 403 451 646 557 515 464 l 381 264 m 347 -19 b 254 72 297 -19 254 22 b 347 163 254 124 297 163 b 439 72 397 163 439 124 b 347 -19 439 22 397 -19 "},"¿":{"ha":740,"x_min":0,"x_max":0,"o":"m 393 779 b 486 688 443 779 486 738 b 393 597 486 636 443 597 b 301 688 343 597 301 636 b 393 779 301 738 343 779 m 428 496 l 449 218 l 421 218 b 214 39 303 218 214 150 b 392 -118 214 -47 289 -118 b 564 -43 458 -118 517 -93 l 632 -126 b 392 -231 583 -181 499 -231 b 94 39 224 -231 94 -107 b 338 308 94 203 225 296 l 360 496 "},"·":{"ha":374,"x_min":0,"x_max":0,"o":"m 188 411 b 94 503 138 411 94 453 b 188 593 94 554 138 593 b 279 503 238 593 279 554 b 188 411 279 453 238 411 "},"•":{"ha":644,"x_min":0,"x_max":0,"o":"m 322 217 b 94 444 192 217 94 318 b 322 672 94 569 192 672 b 550 444 453 672 550 569 b 322 217 550 318 453 217 "},"*":{"ha":643,"x_min":0,"x_max":0,"o":"m 222 603 l 147 656 l 254 789 l 83 779 l 83 869 l 254 860 l 147 993 l 222 1046 l 322 883 l 421 1046 l 496 993 l 389 860 l 560 869 l 560 779 l 389 789 l 496 656 l 421 603 l 322 765 "},"#":{"ha":881,"x_min":0,"x_max":0,"o":"m 788 589 l 675 589 l 629 385 l 739 385 l 718 289 l 607 289 l 557 69 l 453 69 l 503 289 l 289 289 l 239 69 l 135 69 l 185 289 l 72 289 l 93 385 l 207 385 l 253 589 l 142 589 l 163 685 l 275 685 l 325 903 l 429 903 l 379 685 l 593 685 l 643 903 l 747 903 l 697 685 l 808 685 m 525 385 l 571 589 l 357 589 l 311 385 "},"/":{"ha":696,"x_min":0,"x_max":0,"o":"m 74 -150 l 496 1042 l 622 1042 l 199 -150 "},"\\":{"ha":696,"x_min":0,"x_max":0,"o":"m 74 1042 l 199 1042 l 622 -150 l 496 -150 "},"(":{"ha":678,"x_min":0,"x_max":0,"o":"m 214 419 b 613 -165 214 185 333 -78 l 578 -272 b 94 419 310 -189 94 72 b 578 1111 94 767 310 1028 l 610 1004 b 214 419 338 919 214 654 "},")":{"ha":678,"x_min":0,"x_max":0,"o":"m 464 419 b 68 1004 464 654 340 919 l 101 1111 b 585 419 368 1028 585 767 b 101 -272 585 72 368 -189 l 67 -165 b 464 419 344 -78 464 185 "},"{":{"ha":638,"x_min":0,"x_max":0,"o":"m 454 -171 b 233 54 325 -171 233 -86 l 233 275 b 104 404 233 367 172 404 l 81 404 l 81 511 l 104 511 b 233 644 172 511 233 550 l 233 863 b 454 1088 233 1003 325 1088 l 529 1088 l 529 986 l 467 986 b 349 863 385 986 349 933 l 349 644 b 221 458 349 531 288 472 b 349 269 288 443 349 385 l 349 54 b 467 -69 349 -17 385 -69 l 529 -69 l 529 -171 "},"}":{"ha":638,"x_min":0,"x_max":0,"o":"m 108 -171 l 108 -69 l 171 -69 b 289 54 253 -69 289 -17 l 289 269 b 417 458 289 385 350 443 b 289 644 350 472 289 531 l 289 863 b 171 986 289 933 253 986 l 108 986 l 108 1088 l 183 1088 b 404 863 313 1088 404 1003 l 404 644 b 533 511 404 550 465 511 l 557 511 l 557 404 l 533 404 b 404 275 465 404 404 367 l 404 54 b 183 -171 404 -86 313 -171 "},"[":{"ha":499,"x_min":0,"x_max":0,"o":"m 94 -171 l 94 1088 l 390 1088 l 390 986 l 211 986 l 211 -69 l 390 -69 l 390 -171 "},"]":{"ha":499,"x_min":0,"x_max":0,"o":"m 404 -171 l 108 -171 l 108 -69 l 288 -69 l 288 986 l 108 986 l 108 1088 l 404 1088 "},"-":{"ha":574,"x_min":0,"x_max":0,"o":"m 101 363 l 101 469 l 472 469 l 472 363 "},"–":{"ha":926,"x_min":0,"x_max":0,"o":"m 101 367 l 101 474 l 825 474 l 825 367 "},"—":{"ha":1282,"x_min":0,"x_max":0,"o":"m 101 367 l 101 474 l 1181 474 l 1181 367 "},"_":{"ha":629,"x_min":0,"x_max":0,"o":"m 7 -143 l 7 -40 l 622 -40 l 622 -143 "},"‚":{"ha":386,"x_min":0,"x_max":0,"o":"m 189 186 b 290 79 239 186 290 151 l 290 -18 b 158 -140 290 -97 231 -140 l 97 -140 l 97 -67 l 158 -67 b 210 -18 189 -67 210 -47 l 210 7 l 189 7 b 94 96 132 7 94 44 b 189 186 94 144 135 186 "},"„":{"ha":664,"x_min":0,"x_max":0,"o":"m 189 186 b 290 79 239 186 290 151 l 290 -18 b 158 -140 290 -97 231 -140 l 97 -140 l 97 -67 l 158 -67 b 210 -18 189 -67 210 -47 l 210 7 l 189 7 b 94 96 132 7 94 44 b 189 186 94 144 135 186 m 467 186 b 568 79 517 186 568 151 l 568 -18 b 436 -140 568 -97 508 -140 l 375 -140 l 375 -67 l 436 -67 b 488 -18 467 -67 488 -47 l 488 7 l 467 7 b 372 96 410 7 372 44 b 467 186 372 144 413 186 "},"“":{"ha":654,"x_min":0,"x_max":0,"o":"m 197 826 b 292 736 254 826 292 788 b 197 646 292 689 251 646 b 96 753 147 646 96 682 l 96 850 b 228 972 96 931 156 972 l 289 972 l 289 900 l 228 900 b 176 850 197 900 176 879 l 176 826 m 467 826 b 561 736 522 826 561 788 b 465 646 561 689 521 646 b 365 753 415 646 365 682 l 365 850 b 496 972 365 931 424 972 l 558 972 l 558 900 l 496 900 b 444 850 465 900 444 879 l 444 826 "},"”":{"ha":654,"x_min":0,"x_max":0,"o":"m 189 989 b 290 882 239 989 290 954 l 290 785 b 158 663 290 706 231 663 l 97 663 l 97 736 l 158 736 b 210 785 189 736 210 756 l 210 810 l 189 810 b 94 899 132 810 94 847 b 189 989 94 947 135 989 m 457 989 b 558 882 507 989 558 954 l 558 785 b 426 663 558 706 500 663 l 365 663 l 365 736 l 426 736 b 479 785 458 736 479 756 l 479 810 l 457 810 b 363 899 400 810 363 847 b 457 989 363 947 403 989 "},"‘":{"ha":386,"x_min":0,"x_max":0,"o":"m 197 826 b 292 736 254 826 292 788 b 197 646 292 689 251 646 b 96 753 147 646 96 682 l 96 850 b 228 972 96 931 156 972 l 289 972 l 289 900 l 228 900 b 176 850 197 900 176 879 l 176 826 "},"’":{"ha":349,"x_min":0,"x_max":0,"o":"m 189 989 b 290 882 239 989 290 954 l 290 785 b 158 663 290 706 231 663 l 97 663 l 97 736 l 158 736 b 210 785 189 736 210 756 l 210 810 l 189 810 b 94 899 132 810 94 847 b 189 989 94 947 135 989 "},"«":{"ha":794,"x_min":0,"x_max":0,"o":"m 381 606 l 225 369 l 381 135 l 318 89 l 81 369 l 318 650 m 672 606 l 517 369 l 672 135 l 610 89 l 372 369 l 610 650 "},"»":{"ha":788,"x_min":0,"x_max":0,"o":"m 115 606 l 179 650 l 417 369 l 179 89 l 115 135 l 271 369 m 407 606 l 471 650 l 708 369 l 471 89 l 407 135 l 563 369 "},"‹":{"ha":489,"x_min":0,"x_max":0,"o":"m 381 606 l 225 369 l 381 135 l 318 89 l 81 369 l 318 650 "},"›":{"ha":500,"x_min":0,"x_max":0,"o":"m 118 606 l 182 650 l 419 369 l 182 89 l 119 135 l 275 369 "},"\"":{"ha":500,"x_min":0,"x_max":0,"o":"m 157 651 l 107 651 l 54 972 l 210 972 m 393 651 l 343 651 l 290 972 l 446 972 "},"'":{"ha":264,"x_min":0,"x_max":0,"o":"m 107 651 l 54 972 l 210 972 l 157 651 "},"¢":{"ha":725,"x_min":0,"x_max":0,"o":"m 665 244 b 438 146 611 190 529 151 l 438 -1 l 376 -1 l 376 146 b 67 483 194 163 67 308 b 376 819 67 658 194 803 l 376 971 l 438 971 l 438 819 b 664 724 528 814 610 776 l 586 635 b 411 706 550 671 486 706 b 194 483 289 706 194 613 b 411 260 194 353 290 260 b 588 332 486 260 550 293 "},"$":{"ha":689,"x_min":0,"x_max":0,"o":"m 640 268 b 375 1 640 125 533 14 l 375 -115 l 313 -115 l 313 0 l 119 0 l 119 119 l 346 119 b 515 268 442 119 515 178 b 394 419 515 332 478 379 l 271 478 b 92 731 169 526 92 599 b 319 969 92 860 185 954 l 319 1067 l 382 1067 l 382 972 l 571 972 l 571 857 l 358 857 b 215 731 276 857 215 807 b 329 583 215 657 254 621 l 456 522 b 640 268 549 478 640 406 "},"€":{"ha":1033,"x_min":0,"x_max":0,"o":"m 993 144 b 624 -17 907 49 778 -17 b 158 322 394 -17 219 121 l 67 322 l 67 417 l 138 417 b 133 490 135 440 133 465 b 135 531 133 504 133 517 l 67 531 l 67 625 l 150 625 b 624 990 206 833 385 990 b 992 833 782 990 910 922 l 907 744 b 624 871 844 815 740 871 b 283 625 467 871 333 775 l 699 625 l 668 531 l 264 531 b 263 490 263 518 263 504 b 268 417 263 465 264 440 l 633 417 l 603 322 l 294 322 b 624 103 351 188 476 103 b 908 232 743 103 849 164 "},"£":{"ha":856,"x_min":0,"x_max":0,"o":"m 749 110 l 749 0 l 108 0 l 108 106 b 271 353 197 161 271 250 b 261 429 271 379 267 404 l 108 429 l 108 529 l 232 529 b 199 714 215 583 199 643 b 478 990 199 885 324 990 b 724 857 582 990 672 942 l 629 790 b 478 876 606 831 556 876 b 318 714 383 876 318 807 b 354 529 318 646 336 589 l 607 529 l 607 429 l 378 429 b 383 353 381 406 383 381 b 275 110 383 240 335 165 "},"¥":{"ha":779,"x_min":0,"x_max":0,"o":"m 742 972 l 504 615 l 646 615 l 646 518 l 450 518 l 450 403 l 646 403 l 646 306 l 450 306 l 450 0 l 332 0 l 332 306 l 135 306 l 135 403 l 332 403 l 332 518 l 135 518 l 135 615 l 278 615 l 39 972 l 179 972 l 390 647 l 599 972 "},"+":{"ha":696,"x_min":0,"x_max":0,"o":"m 326 88 l 326 411 l 18 411 l 18 453 l 326 453 l 326 776 l 369 776 l 369 453 l 678 453 l 678 411 l 369 411 l 369 88 "},"−":{"ha":696,"x_min":0,"x_max":0,"o":"m 18 411 l 18 453 l 678 453 l 678 411 "},"×":{"ha":554,"x_min":0,"x_max":0,"o":"m 49 169 l 18 200 l 246 428 l 18 656 l 49 686 l 278 458 l 506 686 l 536 656 l 308 428 l 536 200 l 506 169 l 278 397 "},"÷":{"ha":696,"x_min":0,"x_max":0,"o":"m 346 597 b 268 674 301 597 268 631 b 346 751 268 717 301 751 b 421 674 389 751 421 717 b 346 597 421 631 389 597 m 18 411 l 18 453 l 678 453 l 678 411 m 346 114 b 268 190 301 114 268 149 b 346 268 268 233 301 268 b 421 190 389 268 421 233 b 346 114 421 149 389 114 "},"=":{"ha":696,"x_min":0,"x_max":0,"o":"m 18 550 l 18 592 l 678 592 l 678 550 m 18 272 l 18 314 l 678 314 l 678 272 "},">":{"ha":763,"x_min":0,"x_max":0,"o":"m 94 88 l 94 135 l 638 433 l 94 732 l 94 779 l 668 464 l 668 403 "},"<":{"ha":763,"x_min":0,"x_max":0,"o":"m 668 88 l 94 403 l 94 464 l 668 779 l 668 732 l 125 433 l 668 135 "},"~":{"ha":794,"x_min":0,"x_max":0,"o":"m 529 314 b 271 424 421 314 361 424 b 186 315 213 424 189 379 l 93 315 b 268 528 93 446 163 528 b 526 417 378 528 449 417 b 608 526 586 417 607 461 l 701 526 b 529 314 701 397 639 314 "},"^":{"ha":824,"x_min":0,"x_max":0,"o":"m 729 436 l 615 436 l 413 864 l 210 436 l 94 436 l 361 972 l 467 972 "},"%":{"ha":1140,"x_min":0,"x_max":0,"o":"m 306 575 b 101 775 188 575 101 664 b 304 981 101 889 188 981 b 514 775 426 981 514 892 b 306 575 514 665 425 575 m 260 0 l 772 972 l 879 972 l 365 0 m 307 660 b 425 776 376 660 425 713 b 306 896 425 843 375 896 b 190 776 238 896 190 843 b 307 660 190 711 239 660 m 831 -8 b 626 192 714 -8 626 79 b 831 397 626 306 713 397 b 1039 192 951 397 1039 307 b 831 -8 1039 81 950 -8 m 832 76 b 949 193 901 76 949 128 b 831 311 949 260 901 311 b 715 193 763 311 715 260 b 832 76 715 128 764 76 "},"‰":{"ha":1651,"x_min":0,"x_max":0,"o":"m 306 575 b 101 775 188 575 101 664 b 304 981 101 889 188 981 b 514 775 426 981 514 892 b 306 575 514 665 425 575 m 260 0 l 772 972 l 879 972 l 365 0 m 307 660 b 425 776 376 660 425 713 b 306 896 425 846 375 896 b 190 776 238 896 190 843 b 307 660 190 711 239 660 m 831 -8 b 626 192 714 -8 626 79 b 831 397 626 306 713 397 b 1039 192 951 397 1039 307 b 831 -8 1039 81 950 -8 m 1342 -8 b 1138 192 1225 -8 1138 79 b 1340 397 1138 306 1224 397 b 1550 192 1463 397 1550 307 b 1342 -8 1550 81 1461 -8 m 832 76 b 949 193 901 76 949 128 b 831 311 949 260 901 311 b 715 193 763 311 715 260 b 832 76 715 128 764 76 m 1342 76 b 1460 193 1413 76 1460 128 b 1342 311 1460 260 1413 311 b 1226 193 1274 311 1226 260 b 1342 76 1226 128 1275 76 "},"↑":{"ha":1078,"x_min":0,"x_max":0,"o":"m 478 0 l 478 819 l 175 490 l 81 597 l 539 1024 l 999 597 l 903 490 l 601 817 l 601 0 "},"↗":{"ha":953,"x_min":0,"x_max":0,"o":"m 82 269 l 661 849 l 215 829 l 224 972 l 850 949 l 872 324 l 731 315 l 747 760 l 169 182 "},"→":{"ha":1183,"x_min":0,"x_max":0,"o":"m 81 556 l 900 556 l 571 858 l 678 953 l 1104 494 l 678 36 l 571 131 l 897 432 l 81 432 "},"↘":{"ha":954,"x_min":0,"x_max":0,"o":"m 169 775 l 749 194 l 731 642 l 874 633 l 850 7 l 224 -15 l 215 126 l 660 110 l 82 688 "},"↓":{"ha":1078,"x_min":0,"x_max":0,"o":"m 478 972 l 601 972 l 601 156 l 903 482 l 999 375 l 539 -51 l 81 375 l 175 482 l 478 153 "},"↙":{"ha":954,"x_min":0,"x_max":0,"o":"m 783 775 l 871 688 l 294 110 l 738 126 l 729 -15 l 104 7 l 81 633 l 224 642 l 204 194 "},"←":{"ha":1183,"x_min":0,"x_max":0,"o":"m 1104 556 l 1104 432 l 288 432 l 613 131 l 507 36 l 81 494 l 507 953 l 613 858 l 285 556 "},"↖":{"ha":953,"x_min":0,"x_max":0,"o":"m 871 269 l 783 182 l 206 760 l 222 315 l 81 324 l 104 949 l 729 972 l 738 829 l 292 849 "},"@":{"ha":1265,"x_min":0,"x_max":0,"o":"m 640 897 b 1199 358 960 897 1199 664 b 963 47 1199 142 1088 47 b 811 119 892 47 839 76 b 626 47 763 76 701 47 b 358 318 475 47 358 157 b 628 588 358 479 476 588 b 775 544 683 588 732 571 l 775 575 l 876 575 l 876 232 b 965 146 876 182 910 147 b 1097 358 1031 146 1097 201 b 638 801 1097 614 907 801 b 176 324 363 801 176 585 b 629 -165 176 40 372 -165 b 899 -101 715 -165 826 -144 l 944 -182 b 629 -262 875 -228 746 -262 b 67 321 319 -262 67 -15 b 640 897 67 646 310 897 m 629 144 b 775 221 700 144 747 179 l 775 414 b 631 490 747 456 700 490 b 467 315 532 490 467 417 b 629 144 467 214 532 144 "},"&":{"ha":843,"x_min":0,"x_max":0,"o":"m 815 0 l 671 0 l 582 147 b 335 -18 544 51 451 -18 b 63 250 181 -18 63 103 b 335 518 63 399 181 518 b 361 517 343 518 353 518 l 157 857 l 157 972 l 661 972 l 661 857 l 296 857 m 340 97 b 492 253 425 97 492 167 b 340 407 492 338 425 407 b 185 253 250 407 185 338 b 340 97 185 167 250 97 "},"¶":{"ha":728,"x_min":0,"x_max":0,"o":"m 307 0 l 307 506 b 94 740 200 510 94 600 b 318 972 94 885 207 972 l 399 972 l 399 0 m 500 0 l 500 972 l 593 972 l 593 0 "},"§":{"ha":699,"x_min":0,"x_max":0,"o":"m 479 138 b 581 -60 539 89 581 35 b 324 -297 581 -197 469 -297 l 196 -297 l 196 -189 l 325 -189 b 463 -60 403 -189 463 -133 b 372 75 463 8 422 39 l 210 190 b 83 390 126 250 83 314 b 222 585 83 483 139 553 b 121 782 163 632 121 688 b 378 1018 121 918 232 1018 l 507 1018 l 507 910 l 378 910 b 239 782 300 910 239 856 b 329 647 239 714 281 683 l 493 531 b 619 332 575 472 619 408 b 479 138 619 238 564 168 m 200 390 b 272 283 200 357 218 322 l 368 217 b 501 332 443 218 501 260 b 429 438 501 365 483 399 l 333 506 b 200 390 260 504 200 463 "},"©":{"ha":1267,"x_min":0,"x_max":0,"o":"m 629 990 b 1156 483 931 990 1156 765 b 632 -19 1156 201 933 -19 b 111 483 335 -19 111 201 b 629 990 111 764 338 990 m 632 72 b 1053 485 876 72 1053 250 b 629 896 1053 717 876 896 b 214 483 392 896 214 717 b 632 72 214 251 392 72 m 632 654 b 463 485 525 654 463 579 b 632 315 463 390 525 315 b 779 382 690 315 747 340 l 838 303 b 632 215 790 249 715 215 b 356 485 465 215 356 343 b 632 754 356 626 465 754 b 838 667 715 754 790 721 l 779 588 b 632 654 747 629 690 654 "},"®":{"ha":721,"x_min":0,"x_max":0,"o":"m 358 990 b 665 694 540 990 665 856 b 361 397 665 536 542 397 b 56 694 182 397 56 531 b 358 990 56 854 181 990 m 361 444 b 614 694 513 444 614 553 b 358 942 614 838 511 942 b 108 694 211 942 108 833 b 361 444 108 556 211 444 m 469 753 b 421 668 469 714 450 685 l 488 547 l 418 547 l 364 654 l 328 654 l 328 547 l 265 547 l 265 847 l 367 847 b 469 753 422 847 469 810 m 328 790 l 328 714 l 360 714 b 400 753 381 714 400 726 b 360 790 400 775 381 790 "},"™":{"ha":1068,"x_min":0,"x_max":0,"o":"m 82 886 l 82 972 l 428 972 l 428 886 l 301 886 l 301 472 l 210 472 l 210 886 m 869 972 l 983 972 l 983 472 l 896 472 l 896 806 l 785 472 l 713 472 l 601 806 l 601 472 l 514 472 l 514 972 l 628 972 l 749 611 "},"°":{"ha":561,"x_min":0,"x_max":0,"o":"m 279 590 b 81 785 161 590 81 676 b 279 982 81 894 164 982 b 481 786 394 982 481 896 b 279 590 481 676 397 590 m 279 678 b 390 786 343 678 390 725 b 281 894 390 849 342 894 b 171 785 218 894 171 847 b 279 678 171 725 217 678 "},"|":{"ha":444,"x_min":0,"x_max":0,"o":"m 164 -286 l 164 1088 l 281 1088 l 281 -286 "},"†":{"ha":596,"x_min":0,"x_max":0,"o":"m 240 325 l 240 756 l 106 742 l 106 849 l 240 835 l 240 1028 l 353 1028 l 353 835 l 490 849 l 490 742 l 353 756 l 353 325 "},"‡":{"ha":574,"x_min":0,"x_max":0,"o":"m 229 325 l 229 490 l 94 476 l 94 583 l 229 569 l 229 756 l 94 742 l 94 849 l 229 835 l 229 1028 l 342 1028 l 342 835 l 479 849 l 479 742 l 342 756 l 342 569 l 479 583 l 479 476 l 342 490 l 342 325 "},"№":{"ha":1503,"x_min":0,"x_max":0,"o":"m 1161 506 b 919 742 1021 506 919 611 b 1160 981 919 872 1021 981 b 1400 740 1299 981 1400 872 b 1161 506 1400 614 1304 506 m 664 257 l 664 972 l 783 972 l 783 0 l 665 0 l 257 719 l 257 0 l 136 0 l 136 972 l 257 972 m 1161 878 b 1025 742 1076 878 1025 817 b 1161 608 1025 667 1076 608 b 1294 742 1244 608 1294 665 b 1161 878 1294 818 1243 878 m 929 297 l 929 407 l 1389 407 l 1389 297 "},"̒":{"ha":0,"x_min":0,"x_max":0,"o":"m -122 1011 b -162 975 -146 1011 -162 999 l -162 958 l -149 958 b -74 886 -101 958 -74 924 b -150 813 -74 843 -110 813 b -233 901 -190 813 -233 840 l -233 975 b -126 1078 -233 1043 -187 1078 l -69 1078 l -69 1011 "},"̦":{"ha":0,"x_min":0,"x_max":0,"o":"m -147 -76 b -69 -158 -110 -76 -69 -103 l -69 -226 b -169 -322 -69 -292 -112 -322 l -222 -322 l -222 -261 l -174 -261 b -136 -226 -151 -261 -136 -249 l -136 -211 l -147 -211 b -218 -144 -192 -211 -218 -179 b -147 -76 -218 -104 -185 -76 "},"¨":{"ha":528,"x_min":0,"x_max":0,"o":"m 143 869 b 69 943 100 869 69 900 b 143 1015 69 983 100 1015 b 215 942 186 1015 215 983 b 143 869 215 900 186 869 m 386 869 b 313 943 342 869 313 900 b 386 1015 313 983 342 1015 b 458 942 426 1015 458 983 b 386 869 458 900 426 869 "},"˙":{"ha":293,"x_min":0,"x_max":0,"o":"m 146 861 b 69 940 101 861 69 897 b 146 1015 69 982 101 1015 b 224 940 193 1015 224 982 b 146 861 224 897 193 861 "},"`":{"ha":344,"x_min":0,"x_max":0,"o":"m 275 847 l 190 847 l 69 1038 l 197 1038 "},"´":{"ha":344,"x_min":0,"x_max":0,"o":"m 69 847 l 147 1038 l 275 1038 l 154 847 "},"˝":{"ha":540,"x_min":0,"x_max":0,"o":"m 69 847 l 150 1043 l 271 1043 l 151 847 m 267 847 l 347 1043 l 471 1043 l 350 847 "},"ˆ":{"ha":521,"x_min":0,"x_max":0,"o":"m 451 847 l 354 847 l 261 942 l 168 847 l 69 847 l 199 1032 l 322 1032 "},"ˇ":{"ha":521,"x_min":0,"x_max":0,"o":"m 354 1032 l 451 1032 l 322 847 l 199 847 l 69 1032 l 168 1032 l 261 938 "},"˘":{"ha":474,"x_min":0,"x_max":0,"o":"m 238 844 b 69 1022 131 844 69 919 l 158 1022 b 238 931 158 967 188 931 b 314 1022 288 931 314 967 l 404 1022 b 238 844 404 918 340 844 "},"˚":{"ha":406,"x_min":0,"x_max":0,"o":"m 203 804 b 69 933 125 804 69 860 b 201 1061 69 1007 125 1061 b 336 933 281 1061 336 1007 b 203 804 336 860 279 804 m 203 871 b 264 933 239 871 264 897 b 201 996 264 969 239 996 b 142 933 167 996 142 969 b 203 871 142 897 167 871 "},"˜":{"ha":517,"x_min":0,"x_max":0,"o":"m 347 871 b 272 889 319 871 297 879 l 215 911 b 182 921 200 917 190 921 b 153 890 167 921 153 910 l 153 871 l 69 871 l 69 910 b 169 1014 69 976 114 1014 b 243 996 194 1014 219 1006 l 297 974 b 335 964 315 967 324 964 b 363 994 350 964 363 975 l 363 1014 l 447 1014 l 447 975 b 347 871 447 908 403 871 "},"¯":{"ha":479,"x_min":0,"x_max":0,"o":"m 75 892 l 75 990 l 401 990 l 401 892 "},"¸":{"ha":386,"x_min":0,"x_max":0,"o":"m 78 -303 l 78 -228 l 174 -228 b 232 -176 208 -228 232 -206 b 175 -122 232 -144 208 -122 l 92 -122 l 118 19 l 196 19 l 178 -50 l 188 -50 b 317 -176 263 -50 317 -103 b 188 -303 317 -244 264 -303 "},"˛":{"ha":376,"x_min":0,"x_max":0,"o":"m 211 -303 b 69 -175 131 -303 69 -256 b 122 -64 69 -135 88 -101 l 236 57 l 307 0 l 200 -111 b 175 -161 186 -125 175 -140 b 233 -211 175 -190 199 -211 l 300 -211 l 300 -303 "}}}
